<svg xmlns="http://www.w3.org/2000/svg" xmlns:xlink="http://www.w3.org/1999/xlink" width="231.333" height="251.711" viewBox="0 0 231.333 251.711">
  <defs>
    <clipPath id="clip-path">
      <rect id="Rectangle_441" data-name="Rectangle 441" width="231.333" height="251.711" fill="none"/>
    </clipPath>
    <clipPath id="clip-path-3">
      <rect id="Rectangle_410" data-name="Rectangle 410" width="224.1" height="37.48" fill="none"/>
    </clipPath>
    <clipPath id="clip-path-4">
      <rect id="Rectangle_411" data-name="Rectangle 411" width="231.333" height="158.772" fill="none"/>
    </clipPath>
    <clipPath id="clip-path-5">
      <rect id="Rectangle_412" data-name="Rectangle 412" width="192.777" height="106.391" fill="none"/>
    </clipPath>
    <clipPath id="clip-path-6">
      <rect id="Rectangle_413" data-name="Rectangle 413" width="34.548" height="81.105" fill="none"/>
    </clipPath>
    <clipPath id="clip-path-7">
      <rect id="Rectangle_414" data-name="Rectangle 414" width="13.584" height="63.292" fill="none"/>
    </clipPath>
    <clipPath id="clip-path-8">
      <rect id="Rectangle_415" data-name="Rectangle 415" width="55.857" height="33.398" fill="none"/>
    </clipPath>
    <clipPath id="clip-path-9">
      <rect id="Rectangle_416" data-name="Rectangle 416" width="45.772" height="61.6" fill="none"/>
    </clipPath>
    <clipPath id="clip-path-10">
      <rect id="Rectangle_417" data-name="Rectangle 417" width="23.714" height="51.363" fill="none"/>
    </clipPath>
    <clipPath id="clip-path-11">
      <rect id="Rectangle_418" data-name="Rectangle 418" width="53.761" height="16.459" fill="none"/>
    </clipPath>
    <clipPath id="clip-path-12">
      <rect id="Rectangle_419" data-name="Rectangle 419" width="32.946" height="24.535" fill="none"/>
    </clipPath>
    <clipPath id="clip-path-13">
      <rect id="Rectangle_420" data-name="Rectangle 420" width="14.075" height="33.433" fill="none"/>
    </clipPath>
    <clipPath id="clip-path-14">
      <rect id="Rectangle_421" data-name="Rectangle 421" width="7.061" height="30.343" fill="none"/>
    </clipPath>
    <clipPath id="clip-path-15">
      <rect id="Rectangle_422" data-name="Rectangle 422" width="19.255" height="34.773" fill="none"/>
    </clipPath>
    <clipPath id="clip-path-16">
      <rect id="Rectangle_423" data-name="Rectangle 423" width="5.178" height="5.178" fill="none"/>
    </clipPath>
    <clipPath id="clip-path-17">
      <rect id="Rectangle_424" data-name="Rectangle 424" width="1.98" height="2.05" fill="none"/>
    </clipPath>
    <clipPath id="clip-path-18">
      <rect id="Rectangle_425" data-name="Rectangle 425" width="1.981" height="2.05" fill="none"/>
    </clipPath>
  </defs>
  <g id="Group_226" data-name="Group 226" transform="translate(0 7)">
    <g id="Group_225" data-name="Group 225" transform="translate(0 -7)" clip-path="url(#clip-path)">
      <g id="Group_224" data-name="Group 224">
        <g id="Group_223" data-name="Group 223" clip-path="url(#clip-path)">
          <g id="Group_135" data-name="Group 135" transform="translate(2.672 145.573)" opacity="0.67">
            <g id="Group_134" data-name="Group 134">
              <g id="Group_133" data-name="Group 133" clip-path="url(#clip-path-3)">
                <path id="Path_166" data-name="Path 166" d="M5.141,298.759c0,10.35,50.166,18.74,112.05,18.74s112.049-8.39,112.049-18.74-50.166-18.741-112.049-18.741S5.141,288.409,5.141,298.759" transform="translate(-5.141 -280.018)" fill="#95c7b3"/>
              </g>
            </g>
          </g>
          <g id="Group_138" data-name="Group 138" transform="translate(0 5.432)" opacity="0.35">
            <g id="Group_137" data-name="Group 137">
              <g id="Group_136" data-name="Group 136" clip-path="url(#clip-path-4)">
                <path id="Path_167" data-name="Path 167" d="M114.722,150.59c-60.415,0-109.654,8-111.956,18.008-5.708-10.52-2.277-25.4,7.5-32.014,2.49-1.684,5.31-2.887,7.508-4.963,6.783-6.407,4.993-17.639,6.728-26.979A32.261,32.261,0,0,1,42.116,81.574C51.7,77.116,63.439,77.721,71.7,71c7.35-5.977,9.932-16.09,14.171-24.719,9.708-19.763,29.983-33,51.256-35.405s43.079,5.465,59.574,19.593c8.818,7.553,16.411,17.156,19.623,28.535,4.875,17.272-.86,35.567-2.827,53.447a17.42,17.42,0,0,0,.3,7.3c1.763,5.4,7.75,7.747,11.657,11.765,7.943,8.168,6.256,21.673,4,33.03l-2.691,4.677c-.356-10.3-50.378-18.63-112.042-18.63" transform="translate(0 -10.448)" fill="#95c7b3"/>
              </g>
            </g>
          </g>
          <path id="Path_168" data-name="Path 168" d="M394.371,314.88c0,1.817-8.472,3.291-18.923,3.291s-18.922-1.473-18.922-3.291,8.472-3.291,18.922-3.291,18.923,1.473,18.923,3.291" transform="translate(-171.179 -149.604)" fill="#95c7b3"/>
          <g id="Group_141" data-name="Group 141" transform="translate(21.128)" opacity="0.35">
            <g id="Group_140" data-name="Group 140">
              <g id="Group_139" data-name="Group 139" clip-path="url(#clip-path-5)">
                <path id="Path_169" data-name="Path 169" d="M61.327,19.245l-2.411-7.089L51.763,9.937,59.1,7.4,61.434,0l2.411,7.09L71,9.308,63.5,12.02Z" transform="translate(-45.981 0)" fill="#95c7b3"/>
                <path id="Path_170" data-name="Path 170" d="M333.507,67.082,331.1,59.992l-7.152-2.218,7.339-2.532,2.332-7.4,2.411,7.09,7.153,2.218-7.494,2.712Z" transform="translate(-176.663 -22.968)" fill="#95c7b3"/>
                <path id="Path_171" data-name="Path 171" d="M379.685,84.721l-1.229-3.614-3.646-1.131,3.74-1.291,1.189-3.774,1.229,3.614,3.646,1.131-3.82,1.382Z" transform="translate(-201.087 -35.968)" fill="#95c7b3"/>
                <path id="Path_172" data-name="Path 172" d="M60.193,195.59l-1.229-3.614-3.646-1.13,3.741-1.291,1.188-3.774,1.229,3.614,3.646,1.131-3.82,1.382Z" transform="translate(-47.688 -89.199)" fill="#95c7b3"/>
                <path id="Path_173" data-name="Path 173" d="M355.224,101.751l-1.229-3.614-3.646-1.13,3.741-1.291,1.188-3.774,1.229,3.614,3.646,1.131-3.819,1.382Z" transform="translate(-189.342 -44.144)" fill="#95c7b3"/>
                <path id="Path_174" data-name="Path 174" d="M102.922,70.568l-1.229-3.614-3.646-1.13,3.74-1.291,1.189-3.775,1.229,3.614,3.646,1.131-3.819,1.382Z" transform="translate(-68.204 -29.172)" fill="#95c7b3"/>
                <path id="Path_175" data-name="Path 175" d="M88.944,46.449a1.074,1.074,0,1,1-1.075-1.075,1.075,1.075,0,0,1,1.075,1.075" transform="translate(-62.801 -21.785)" fill="#95c7b3"/>
                <path id="Path_176" data-name="Path 176" d="M409.476,144.482a1.074,1.074,0,1,1-1.075-1.075,1.075,1.075,0,0,1,1.075,1.075" transform="translate(-216.699 -68.854)" fill="#95c7b3"/>
                <path id="Path_177" data-name="Path 177" d="M405.827,171.869a1.074,1.074,0,1,1-1.075-1.075,1.075,1.075,0,0,1,1.075,1.075" transform="translate(-214.947 -82.003)" fill="#95c7b3"/>
                <path id="Path_178" data-name="Path 178" d="M382.089,167.122a1.074,1.074,0,1,1-1.075-1.075,1.075,1.075,0,0,1,1.075,1.075" transform="translate(-203.549 -79.724)" fill="#95c7b3"/>
                <path id="Path_179" data-name="Path 179" d="M55.19,124.289a1.074,1.074,0,1,1-1.075-1.075,1.075,1.075,0,0,1,1.075,1.075" transform="translate(-46.595 -59.159)" fill="#95c7b3"/>
                <path id="Path_180" data-name="Path 180" d="M42.791,109.134a1.074,1.074,0,1,1-1.075-1.075,1.075,1.075,0,0,1,1.075,1.075" transform="translate(-40.642 -51.882)" fill="#95c7b3"/>
                <path id="Path_181" data-name="Path 181" d="M328.059,32.29a1.074,1.074,0,1,1-1.075-1.075,1.075,1.075,0,0,1,1.075,1.075" transform="translate(-177.608 -14.987)" fill="#95c7b3"/>
              </g>
            </g>
          </g>
          <g id="Group_144" data-name="Group 144" transform="translate(49.558 33.617)" opacity="0.48">
            <g id="Group_143" data-name="Group 143">
              <g id="Group_142" data-name="Group 142" clip-path="url(#clip-path-6)">
                <path id="Path_182" data-name="Path 182" d="M129.866,145.206a209.56,209.56,0,0,1-14.911-24.813,137.873,137.873,0,0,1-8.736-21.523q.259-7.674.517-15.348c.2-6.08.132-12.908-4.159-17.22-1.05-1.055-2.532-1.939-3.966-1.54-1.679.466-2.432,2.4-2.77,4.106-2.092,10.59,2.52,21.3,8.716,30.258q1.065,3.508,2.342,6.949a159.884,159.884,0,0,0,12.556,25.865c2.77,4.67,5.727,9.227,8.812,13.695.281.407,1.746-.218,1.6-.429" transform="translate(-95.328 -64.665)" fill="#305563"/>
              </g>
            </g>
          </g>
          <g id="Group_147" data-name="Group 147" transform="translate(65.447 47.037)" opacity="0.48">
            <g id="Group_146" data-name="Group 146">
              <g id="Group_145" data-name="Group 145" clip-path="url(#clip-path-7)">
                <path id="Path_183" data-name="Path 183" d="M139.472,153.546a154.631,154.631,0,0,1-6.588-20.331,101.758,101.758,0,0,1-2.7-16.936l2.93-10.952c1.161-4.339,2.247-9.262-.121-13.078a3.188,3.188,0,0,0-2.6-1.769c-1.285.056-2.149,1.319-2.677,2.492-3.27,7.268-1.738,15.739,1.224,23.215q.181,2.7.526,5.388A118.01,118.01,0,0,0,134.2,142.27c1.214,3.821,2.581,7.591,4.054,11.318.134.339,1.291.134,1.222-.042" transform="translate(-125.891 -90.479)" fill="#305563"/>
              </g>
            </g>
          </g>
          <g id="Group_150" data-name="Group 150" transform="translate(43.139 78.775)" opacity="0.48">
            <g id="Group_149" data-name="Group 149">
              <g id="Group_148" data-name="Group 148" clip-path="url(#clip-path-8)">
                <path id="Path_184" data-name="Path 184" d="M138.8,183.928a154.721,154.721,0,0,1-20.114-7.223,101.753,101.753,0,0,1-15.047-8.226l-6.872-9.017c-2.723-3.572-5.953-7.442-10.42-7.9a3.186,3.186,0,0,0-2.987.971c-.742,1.051-.271,2.507.334,3.642,3.75,7.033,11.388,11,19.115,13.231q2.247,1.508,4.584,2.879a117.969,117.969,0,0,0,19.259,8.925c3.765,1.377,7.584,2.6,11.434,3.715.35.1.9-.94.715-.992" transform="translate(-82.98 -151.529)" fill="#305563"/>
              </g>
            </g>
          </g>
          <g id="Group_153" data-name="Group 153" transform="translate(172.787 55.079)" opacity="0.48">
            <g id="Group_152" data-name="Group 152">
              <g id="Group_151" data-name="Group 151" clip-path="url(#clip-path-9)">
                <path id="Path_185" data-name="Path 185" d="M332.385,166.772a182.141,182.141,0,0,0,18.1-17.473,119.814,119.814,0,0,0,12.174-16.1q1.509-6.5,3.018-13c1.2-5.15,2.792-10.865,7.364-13.519a3.752,3.752,0,0,1,3.676-.4c1.3.769,1.5,2.559,1.4,4.07-.626,9.36-6.906,17.311-14.122,23.437q-1.683,2.705-3.529,5.306a138.9,138.9,0,0,1-16.357,18.885c-3.375,3.3-6.883,6.456-10.477,9.513-.327.278-1.416-.576-1.247-.72" transform="translate(-332.367 -105.947)" fill="#305563"/>
              </g>
            </g>
          </g>
          <g id="Group_156" data-name="Group 156" transform="translate(177.964 62.667)" opacity="0.48">
            <g id="Group_155" data-name="Group 155">
              <g id="Group_154" data-name="Group 154" clip-path="url(#clip-path-10)">
                <path id="Path_186" data-name="Path 186" d="M342.331,171.518a134.39,134.39,0,0,0,10.1-15.584,88.384,88.384,0,0,0,6.072-13.609q0-4.925,0-9.852c0-3.9.2-8.279,3.043-10.95a2.77,2.77,0,0,1,2.576-.9c1.066.335,1.507,1.59,1.686,2.693,1.11,6.836-2.081,13.6-6.249,19.21q-.76,2.226-1.654,4.4A102.488,102.488,0,0,1,349.3,163.24c-1.878,2.934-3.874,5.791-5.949,8.588-.189.255-1.115-.178-1.017-.31" transform="translate(-342.324 -120.543)" fill="#305563"/>
              </g>
            </g>
          </g>
          <g id="Group_159" data-name="Group 159" transform="translate(160.945 94.59)" opacity="0.48">
            <g id="Group_158" data-name="Group 158">
              <g id="Group_157" data-name="Group 157" clip-path="url(#clip-path-11)">
                <path id="Path_187" data-name="Path 187" d="M309.642,197.415a134.44,134.44,0,0,0,18.508-1.538,88.456,88.456,0,0,0,14.48-3.52l7.8-6.023c3.089-2.386,6.671-4.908,10.525-4.29a2.771,2.771,0,0,1,2.288,1.487c.387,1.049-.336,2.165-1.1,2.982-4.729,5.059-12.033,6.672-19.02,6.805q-2.226.76-4.5,1.385a102.516,102.516,0,0,1-18.173,3.159c-3.47.308-6.951.477-10.433.546-.317.006-.541-.991-.377-.994" transform="translate(-309.587 -181.949)" fill="#305563"/>
              </g>
            </g>
          </g>
          <path id="Path_188" data-name="Path 188" d="M398.023,277a16.5,16.5,0,0,0-.456-3.849h-.274c-.533-2.3-7.456-4.125-15.923-4.125-8.815,0-15.961,1.974-15.961,4.41a1.263,1.263,0,0,0,.02.217,16.421,16.421,0,0,0,9.426,18.4c-1.4.379-2.257.876-2.257,1.423,0,1.186,4.008,2.149,8.953,2.149s8.953-.962,8.953-2.149c0-.546-.857-1.044-2.257-1.423A16.473,16.473,0,0,0,398.023,277" transform="translate(-175.285 -129.166)" fill="#dc903c"/>
          <g id="Group_162" data-name="Group 162" transform="translate(189.792 141.917)" opacity="0.11">
            <g id="Group_161" data-name="Group 161">
              <g id="Group_160" data-name="Group 160" clip-path="url(#clip-path-12)">
                <path id="Path_189" data-name="Path 189" d="M398.023,278.9a16.5,16.5,0,0,0-.456-3.849h-.274c-.175-.756-1.042-1.459-2.423-2.064a9.381,9.381,0,0,1,1.524,4.475,12.777,12.777,0,0,1-5.768,11.135c-3.593,2.332-8.228,2.478-12.271,1.431-5.925-1.534-11.11-5.7-13.277-11.128h0a16.473,16.473,0,0,0,9.777,15.05c-1.4.379-2.257.876-2.257,1.423,0,1.186,4.008,2.149,8.953,2.149s8.953-.962,8.953-2.149c0-.546-.857-1.044-2.257-1.423a16.473,16.473,0,0,0,9.777-15.05" transform="translate(-365.077 -272.986)" fill="#2b3448"/>
              </g>
            </g>
          </g>
          <path id="Path_190" data-name="Path 190" d="M397.4,274.209c0,1.972-5.785,3.57-12.92,3.57s-12.92-1.6-12.92-3.57,5.785-3.57,12.92-3.57,12.92,1.6,12.92,3.57" transform="translate(-178.399 -129.942)" fill="#74471b"/>
          <path id="Path_191" data-name="Path 191" d="M382.276,248.151a27.834,27.834,0,0,1-6.932-5.36c-1.9-2.239-3.081-5.277-2.412-8.133.328-1.4,1.083-2.721,1.054-4.158-.061-3.029-3.336-4.8-5.139-7.235-2.168-2.929-2.162-6.878-2.064-10.522,1.33,3.979,5.893,5.666,9.1,8.364,3.556,2.987,5.581,7.481,6.445,12.044s.677,9.252.487,13.892Z" transform="translate(-176.088 -102.145)" fill="#5ca28b"/>
          <g id="Group_165" data-name="Group 165" transform="translate(190.664 111.571)" opacity="0.18">
            <g id="Group_164" data-name="Group 164">
              <g id="Group_163" data-name="Group 163" clip-path="url(#clip-path-13)">
                <path id="Path_192" data-name="Path 192" d="M378.55,229.537c-2.423-6.148-8.423-9.6-11.788-14.923-.059,3.361.109,6.878,2.086,9.549,1.8,2.435,5.078,4.2,5.139,7.234.029,1.436-.726,2.759-1.054,4.158-.67,2.856.516,5.894,2.412,8.133a23,23,0,0,0,5.327,4.358c.39-6.315.173-12.687-2.122-18.51" transform="translate(-366.753 -214.614)" fill="#2b3448"/>
              </g>
            </g>
          </g>
          <path id="Path_193" data-name="Path 193" d="M393.636,247.379a14.362,14.362,0,0,1-2.125-14.454c1.375-3.247,3.992-6.06,4.334-9.569a42.849,42.849,0,0,0-.3-5.245,12.336,12.336,0,0,1,1.933-6.932c-.685,7.207,4.441,13.873,4.42,21.113-.016,5.572-8.265,15.089-8.265,15.089" transform="translate(-187.463 -101.393)" fill="#5ca28b"/>
          <g id="Group_168" data-name="Group 168" transform="translate(207.377 113.12)" opacity="0.18">
            <g id="Group_167" data-name="Group 167">
              <g id="Group_166" data-name="Group 166" clip-path="url(#clip-path-14)">
                <path id="Path_194" data-name="Path 194" d="M401.609,223.263a62.873,62.873,0,0,1-1.985,16.5,19.585,19.585,0,0,0-.479,8.175,15.489,15.489,0,0,0,6.82-12.565c.018-6.111-3.632-11.813-4.359-17.777a53.7,53.7,0,0,0,0,5.669" transform="translate(-398.903 -217.594)" fill="#2b3448"/>
              </g>
            </g>
          </g>
          <path id="Path_195" data-name="Path 195" d="M396.5,245.06c.027-4.642.236-9.763,3.413-13.146,2.669-2.842,6.993-3.9,9.176-7.127,1.9-2.812,1.664-6.495,2.448-9.8a15.8,15.8,0,0,1,5.446-8.6q.45,5.066.9,10.131c.358,4.031.7,8.19-.541,12.04a20.342,20.342,0,0,1-7.833,9.938A60.6,60.6,0,0,1,398.1,244.4Z" transform="translate(-190.371 -99.092)" fill="#5ca28b"/>
          <g id="Group_171" data-name="Group 171" transform="translate(208.589 110.167)" opacity="0.18">
            <g id="Group_170" data-name="Group 170">
              <g id="Group_169" data-name="Group 169" clip-path="url(#clip-path-15)">
                <path id="Path_196" data-name="Path 196" d="M419.509,211.913c-1.27,3.383-1.811,7.048-2.944,10.471a36.025,36.025,0,0,1-8.316,13.474c-3.315,3.541-5.916,6.332-7.016,10.828a56.454,56.454,0,0,0,10.548-5.538,20.338,20.338,0,0,0,7.832-9.938c1.245-3.85.9-8.01.541-12.04l-.646-7.258" transform="translate(-401.233 -211.913)" fill="#2b3448"/>
              </g>
            </g>
          </g>
          <path id="Path_197" data-name="Path 197" d="M185.333,126.6a23.465,23.465,0,0,1-7.839,13.47.779.779,0,0,0-.322.439.652.652,0,0,0,.2.493,4.04,4.04,0,0,0,1.932,1.05,28.354,28.354,0,0,0,8.267,1.259,2.22,2.22,0,0,0,1.486-.37,2.263,2.263,0,0,0,.561-.979,70.382,70.382,0,0,0,2.556-8.781,1,1,0,0,0,.032-.41c-.055-.268-.311-.439-.542-.585a18.547,18.547,0,0,1-4.566-4.09" transform="translate(-85.064 -60.783)" fill="#e5928a"/>
          <path id="Path_198" data-name="Path 198" d="M199.452,132.768c-.055-.268-.311-.439-.542-.585a18.526,18.526,0,0,1-4.566-4.09l-1.768-1.5c-.087.465-.206.923-.322,1.382a4.765,4.765,0,0,1,.3,1.507c.086,2.085,2.223,4.266,3.023,6.194a10.277,10.277,0,0,1,.246,7.507,1.324,1.324,0,0,0,.48-.248,2.261,2.261,0,0,0,.561-.979,70.336,70.336,0,0,0,2.556-8.781,1,1,0,0,0,.032-.41" transform="translate(-92.307 -60.783)" fill="#d57d7a"/>
          <path id="Path_199" data-name="Path 199" d="M230.83,127.663a9.544,9.544,0,0,1-.31-7.134,20.521,20.521,0,0,0,1.316-3.605,8.606,8.606,0,0,0-1.4-5.346,18.124,18.124,0,0,1-2.336-5.094,7.2,7.2,0,0,1,2.341-6.711l2.156,1.132a10.484,10.484,0,0,0,.6,8.1,19.883,19.883,0,0,1,2.063,4.026c.629,2.485-.673,5.012-1.984,7.215s-2.729,4.619-2.348,7.153" transform="translate(-109.46 -47.904)" fill="#0c0059"/>
          <path id="Path_200" data-name="Path 200" d="M201.649,76.424a11.237,11.237,0,0,1,10,13.241c-.286,1.541-.894,3.013-1.128,4.563a5.107,5.107,0,0,0,1.086,4.4c.42.418.767.712,1.149,1.165s.619.812.28,1.3c-.443.636-1.3.842-1.932,1.295a2.629,2.629,0,0,0-.732,1.042,42.591,42.591,0,0,1-6.06,9.185,1.2,1.2,0,0,1-.453.373,1.218,1.218,0,0,1-.872-.13,52.567,52.567,0,0,1-9-4.492,17.638,17.638,0,0,1-6.587-7.439,13.275,13.275,0,0,1-.408-9.273" transform="translate(-89.471 -36.694)" fill="#e5928a"/>
          <path id="Path_201" data-name="Path 201" d="M229.958,112.191c0,.488-.279.883-.622.883s-.622-.4-.622-.883.278-.883.622-.883.622.4.622.883" transform="translate(-109.813 -53.442)" fill="#0c0059"/>
          <g id="Group_174" data-name="Group 174" transform="translate(113.342 61.601)" opacity="0.51">
            <g id="Group_173" data-name="Group 173">
              <g id="Group_172" data-name="Group 172" clip-path="url(#clip-path-16)">
                <path id="Path_202" data-name="Path 202" d="M223.2,121.083a2.589,2.589,0,1,1-2.589-2.589,2.589,2.589,0,0,1,2.589,2.589" transform="translate(-218.02 -118.494)" fill="#da6662"/>
              </g>
            </g>
          </g>
          <path id="Path_203" data-name="Path 203" d="M227.738,131.26l-3.062-.632a7.911,7.911,0,0,0,2.109,1.66c.738.206.953-1.028.953-1.028" transform="translate(-107.874 -62.719)" fill="#da6662"/>
          <path id="Path_204" data-name="Path 204" d="M169.482,71.295a16.555,16.555,0,0,1-9.632-.768,7.138,7.138,0,0,1-3.655-3.212,7.372,7.372,0,0,1-.43-4.822,11.225,11.225,0,0,1,9.474-8.566,9.551,9.551,0,0,1,7.307,2.148,7.551,7.551,0,0,1,2.486,7.054" transform="translate(-74.687 -25.862)" fill="#0c0059"/>
          <path id="Path_205" data-name="Path 205" d="M205.249,74.171a20.523,20.523,0,0,0-14.594-7.179c-4.454-.274-8,.185-11.061,2.048s-4.74,4.552-6.567,7.639c-2.184,3.691-3.563,6.1-3.415,10.39a14.385,14.385,0,0,0,5.457,10.875c.9.714,3.248,2.6,4.39,2.732,1.421.16,1.4.482,2.457-.48a9.554,9.554,0,0,0,2.312-3.57c.589-1.462,1.116-3.171,2.544-3.838,1.173-.548,2.449-.173,3.745.168a8.023,8.023,0,0,0,.018.935c.2,2.265,1.29,4.338,2.179,6.431s1.6,4.419,1.017,6.617a24.88,24.88,0,0,1-2.036,4.18,11.564,11.564,0,0,0-.517,8.636l.154-.308c-.143-3.1,1.867-5.836,3.722-8.327s3.738-5.374,3.292-8.447c-.264-1.814-1.315-3.4-1.984-5.109a12.572,12.572,0,0,1-.841-5.023c.206-.1.413-.2.615-.3,3.444-1.772,6.858-3.93,8.96-7.184s2.555-7.843.152-10.881" transform="translate(-81.43 -32.13)" fill="#0c0059"/>
          <path id="Path_206" data-name="Path 206" d="M174.065,80.261s-1.325,0,.918-3.051a121.715,121.715,0,0,1,8.351-9.151s1-.6-.77,3.211-5.881,7.345-8.5,8.991" transform="translate(-83.388 -32.661)" fill="#dd667f"/>
          <path id="Path_207" data-name="Path 207" d="M192.792,68.277s.848-.388,2.131,1.4a39.02,39.02,0,0,1,2.948,5.913s.154.658-1.636-1a14.24,14.24,0,0,1-3.443-6.31" transform="translate(-92.565 -32.765)" fill="#dd667f"/>
          <path id="Path_208" data-name="Path 208" d="M192.792,66.364s.019-.807,1.751-1.478a30.962,30.962,0,0,1,5.286-1.126s.54.014-1.254,1.126a12.012,12.012,0,0,1-5.783,1.478" transform="translate(-92.565 -30.613)" fill="#dd667f"/>
          <path id="Path_209" data-name="Path 209" d="M192.887,67.5a1.231,1.231,0,1,1-1.231-1.231,1.23,1.23,0,0,1,1.231,1.231" transform="translate(-91.429 -31.816)" fill="#dd667f"/>
          <path id="Path_210" data-name="Path 210" d="M201.419,113.3c.509,1.217.538,4.283-.747,4.582a2.882,2.882,0,0,1-2.415-.662,5.615,5.615,0,0,1-1.482-2.1,5.039,5.039,0,0,1-.479-3.22,2.477,2.477,0,0,1,2.348-1.96,2.581,2.581,0,0,1,1.894,1.213,7.633,7.633,0,0,1,.881,2.148" transform="translate(-94.199 -52.783)" fill="#e5928a"/>
          <path id="Path_211" data-name="Path 211" d="M201.059,117.064c-3.286,0-4.69-2.91-4.223-5.408a2.8,2.8,0,0,0-.54,1.067,5.041,5.041,0,0,0,.479,3.22,5.62,5.62,0,0,0,1.482,2.1,2.881,2.881,0,0,0,2.416.662c.582-.135.893-.841,1.013-1.684a5.047,5.047,0,0,1-.626.042" transform="translate(-94.199 -53.609)" fill="#d57d7a"/>
          <path id="Path_212" data-name="Path 212" d="M289.461,424.124c.51,4.535,1.545,9.412-2.487,16.49a6.516,6.516,0,0,0-1.2,2.408c-.157,1.617,1.376,2.923,2.916,3.442s3.235.579,4.68,1.322c1.742.9,2.855,2.635,4.242,4.018a12.783,12.783,0,0,0,6.82,3.521c.3.05.69.037.788-.247a.612.612,0,0,0-.052-.415c-.651-1.633-2.336-2.578-3.448-3.941-1.092-1.338-1.6-3.045-2.443-4.554-.688-1.233-1.814-3.544-2.351-4.849-.865-2.1-.5-4.354-.018-6.577a101.047,101.047,0,0,1,2.448-9.914" transform="translate(-137.203 -203.635)" fill="#e5928a"/>
          <path id="Path_213" data-name="Path 213" d="M186.717,281.353a111.408,111.408,0,0,1,38.957-5.5c9.777.37,20.4,2.526,26.618,10.076,4.483,5.439,4.972,8.034,5.391,15.07.381,6.389-.467,17.059-1.026,23.435-.951,10.833-1.189,22.082-3.615,32.683a2.1,2.1,0,0,1-.417.986,2,2,0,0,1-.993.487,20.414,20.414,0,0,1-9.257.266,2.225,2.225,0,0,1-1.212-.535,2.307,2.307,0,0,1-.473-1.32c-1-7.508-1.841-19.2-2.482-26.742-.517-6.083-.425-8.043-2.422-13.812a11.541,11.541,0,0,0-2.274-4.3c-2.3-2.414-6.035-2.6-9.362-2.43-11.262.587-22.642,3.463-33.676,1.134" transform="translate(-89.649 -132.409)" fill="#000023"/>
          <path id="Path_214" data-name="Path 214" d="M256.905,340.665a19.181,19.181,0,0,1-6.715,11.591,5.368,5.368,0,0,0-1.813,1.988c-.593,1.513.525,3.187,1.865,4.107s2.954,1.441,4.141,2.55c1.431,1.337,2.026,3.315,2.983,5.023a12.784,12.784,0,0,0,5.6,5.249c.271.13.653.224.825-.023a.611.611,0,0,0,.063-.413c-.18-1.749-1.543-3.119-2.241-4.732-.685-1.585-.709-3.368-1.106-5.048-.324-1.373-.777-3.9-.937-5.307-.258-2.259.468-3.287,1.538-5.293a89.03,89.03,0,0,1,5.4-7.524" transform="translate(-119.175 -163.564)" fill="#e5928a"/>
          <path id="Path_215" data-name="Path 215" d="M140.726,265.574c-.542,5.3-.7,11.432,2.468,15.824,4.648,6.447,13.977,7.62,21.915,8.017s15.889-.3,22.762-4.3,12.837-9.365,18.476-14.966c8.206-8.153,15.834-16.868,23.252-25.744-12.062,11.881-23.431,25.493-27.462,41.937a1.916,1.916,0,0,0-.055,1.033,1.956,1.956,0,0,0,1.048.972l10.068,5.444a1.933,1.933,0,0,0,2.989-.633,230.265,230.265,0,0,0,14.971-20.4c6.8-10.167,13.462-21.117,14.287-33.318.21-3.105-.081-6.519-2.194-8.8-2.338-2.53-6.157-2.909-9.6-2.881-14.066.114-29.2,8.991-41.774,15.3s-27.2,23.148-36.156,4.209" transform="translate(-67.42 -109.354)" fill="#111164"/>
          <path id="Path_216" data-name="Path 216" d="M338.461,163.805l17.4-22.519a.817.817,0,0,1,1.461.431l1.418,16.862-10.664,16.711Z" transform="translate(-162.506 -67.683)" fill="#dd667f"/>
          <path id="Path_217" data-name="Path 217" d="M322.659,167.856l24.07-27.768,3.853,17.671Z" transform="translate(-154.918 -67.26)" fill="#eae9f0"/>
          <path id="Path_218" data-name="Path 218" d="M317.5,172.519,329.994,149.8l18.689,13.02Z" transform="translate(-152.444 -71.923)" fill="#fff"/>
          <path id="Path_219" data-name="Path 219" d="M295.9,187.028c3.154-5.108,13.99-22.265,16.973-26.986A1.81,1.81,0,0,1,315,159.3l23.223,8.034-17.371,27.223a1.1,1.1,0,0,1-1.209.47l-23-6.14a1.247,1.247,0,0,1-.742-1.859" transform="translate(-141.984 -76.436)" fill="#dd667f"/>
          <path id="Path_220" data-name="Path 220" d="M338.5,174.5a4.155,4.155,0,0,1-2.015,2.561c-3.032,1.786-5.168,5.081-7.949,7.28a62.918,62.918,0,0,1-9.144,6.11,54.659,54.659,0,0,1-22.017,5.755c.024.008.044.021.069.028l23,6.14a1.1,1.1,0,0,0,1.209-.47l17.371-27.223Z" transform="translate(-142.778 -83.783)" fill="#d25473"/>
          <path id="Path_221" data-name="Path 221" d="M162.195,146.269c-8.625,5.367-14.543,14.37-17.806,23.989s-4.091,19.89-4.313,30.045.137,20.343-.861,30.452c-.069.7,0,1.619.682,1.79a1.524,1.524,0,0,0,1.242-.5c10.164-8.34,23.313-11.917,34.947-18.042a4.48,4.48,0,0,0,1.812-1.414,4.577,4.577,0,0,0,.5-1.378l1.357-5.53c1.982-8.076,3.974-16.219,4.285-24.529a35.128,35.128,0,0,0-6.07-21.8c-.852-1.322-3.991-6.922-5.114-8.022-2.857-2.8-6.393-1-10.66-5.059" transform="translate(-66.831 -70.228)" fill="#97abe0"/>
          <path id="Path_222" data-name="Path 222" d="M193.831,172.377a4.015,4.015,0,0,1-3.946,2.539c-6.948-.42-14.415-.429-21.387-1.483-.727,8.063.776,16.553,5.335,23.342,5.1,7.6,13.086,12.408,21.137,16.351a101.47,101.47,0,0,0,3.055-19.436c.273-7.314-.849-14.846-4.194-21.312" transform="translate(-80.817 -82.764)" fill="#7995cf"/>
          <path id="Path_223" data-name="Path 223" d="M320.785,207.973c1.306.74,3.01.056,4.053-1.023a39.163,39.163,0,0,0,2.677-3.417c1.114-1.431,3.458-2.494,5.68-4.016a.342.342,0,0,1,.532.362c-.364,1.33-2.37,3.489-2.7,4.727a.468.468,0,0,0,.025.422.446.446,0,0,0,.394.094c2.486-.25,4.357-2.359,6.69-3.252a1.666,1.666,0,0,1,1.068-.127c.754.232.188,1.762,0,2.529a9.585,9.585,0,0,1-2.875,4.425c-4.438,3.89-9.765,4.758-15.61,3.94" transform="translate(-153.99 -95.764)" fill="#e5928a"/>
          <path id="Path_224" data-name="Path 224" d="M167.995,162.876c3.206-2.309,7.342-2.446,11.132-1.781,7.276,1.278,13.958,5.169,20.066,9.674,5.676,4.186,11.03,8.978,17.189,12.247,8.262,4.385,17.632,5.819,26.813,5.543,1.746-.053,3.583-.144,5.136.731s2.614,3.11,1.718,4.748a4.815,4.815,0,0,1-2.615,1.885c-7.275,2.995-14.584,6-22.191,7.748s-15.587,2.195-23.113.071c-10.364-2.925-19.1-10.457-26.871-18.506a32.446,32.446,0,0,1-6.083-7.914c-1.508-3.042-4.669-10.1-1.182-14.445" transform="translate(-79.902 -77.18)" fill="#97abe0"/>
          <g id="Group_177" data-name="Group 177" transform="translate(98.267 90.404)" opacity="0.46">
            <g id="Group_176" data-name="Group 176">
              <g id="Group_175" data-name="Group 175" clip-path="url(#clip-path-17)">
                <path id="Path_225" data-name="Path 225" d="M190.013,175.948a1.026,1.026,0,0,0,0-2.05,1.026,1.026,0,0,0,0,2.05" transform="translate(-189.023 -173.898)" fill="#fff"/>
              </g>
            </g>
          </g>
          <g id="Group_180" data-name="Group 180" transform="translate(114.803 112.399)" opacity="0.46">
            <g id="Group_179" data-name="Group 179">
              <g id="Group_178" data-name="Group 178" clip-path="url(#clip-path-18)">
                <path id="Path_226" data-name="Path 226" d="M221.821,218.257a1.026,1.026,0,0,0,0-2.05,1.026,1.026,0,0,0,0,2.05" transform="translate(-220.831 -216.207)" fill="#fff"/>
              </g>
            </g>
          </g>
          <g id="Group_183" data-name="Group 183" transform="translate(117.051 96.184)" opacity="0.46">
            <g id="Group_182" data-name="Group 182">
              <g id="Group_181" data-name="Group 181" clip-path="url(#clip-path-17)">
                <path id="Path_227" data-name="Path 227" d="M226.145,187.066a1.026,1.026,0,0,0,0-2.05,1.026,1.026,0,0,0,0,2.05" transform="translate(-225.155 -185.016)" fill="#fff"/>
              </g>
            </g>
          </g>
          <g id="Group_186" data-name="Group 186" transform="translate(102.441 105.335)" opacity="0.46">
            <g id="Group_185" data-name="Group 185">
              <g id="Group_184" data-name="Group 184" clip-path="url(#clip-path-18)">
                <path id="Path_228" data-name="Path 228" d="M198.042,204.669a1.026,1.026,0,0,0,0-2.05,1.026,1.026,0,0,0,0,2.05" transform="translate(-197.052 -202.619)" fill="#fff"/>
              </g>
            </g>
          </g>
          <g id="Group_189" data-name="Group 189" transform="translate(134.069 111.115)" opacity="0.46">
            <g id="Group_188" data-name="Group 188">
              <g id="Group_187" data-name="Group 187" clip-path="url(#clip-path-18)">
                <path id="Path_229" data-name="Path 229" d="M258.88,215.786a1.026,1.026,0,0,0,0-2.05,1.026,1.026,0,0,0,0,2.05" transform="translate(-257.89 -213.736)" fill="#fff"/>
              </g>
            </g>
          </g>
          <g id="Group_192" data-name="Group 192" transform="translate(130.564 122.995)" opacity="0.46">
            <g id="Group_191" data-name="Group 191">
              <g id="Group_190" data-name="Group 190" clip-path="url(#clip-path-18)">
                <path id="Path_230" data-name="Path 230" d="M252.137,238.639a1.026,1.026,0,0,0,0-2.05,1.026,1.026,0,0,0,0,2.05" transform="translate(-251.147 -236.589)" fill="#fff"/>
              </g>
            </g>
          </g>
          <g id="Group_195" data-name="Group 195" transform="translate(154.137 115.61)" opacity="0.46">
            <g id="Group_194" data-name="Group 194">
              <g id="Group_193" data-name="Group 193" clip-path="url(#clip-path-18)">
                <path id="Path_231" data-name="Path 231" d="M297.482,224.433a1.026,1.026,0,0,0,0-2.05,1.026,1.026,0,0,0,0,2.05" transform="translate(-296.492 -222.383)" fill="#fff"/>
              </g>
            </g>
          </g>
          <g id="Group_198" data-name="Group 198" transform="translate(105.973 136.481)" opacity="0.46">
            <g id="Group_197" data-name="Group 197">
              <g id="Group_196" data-name="Group 196" clip-path="url(#clip-path-18)">
                <path id="Path_232" data-name="Path 232" d="M204.836,264.58a1.026,1.026,0,0,0,0-2.05,1.026,1.026,0,0,0,0,2.05" transform="translate(-203.846 -262.53)" fill="#fff"/>
              </g>
            </g>
          </g>
          <g id="Group_201" data-name="Group 201" transform="translate(93.129 120.587)" opacity="0.46">
            <g id="Group_200" data-name="Group 200">
              <g id="Group_199" data-name="Group 199" clip-path="url(#clip-path-18)">
                <path id="Path_233" data-name="Path 233" d="M180.13,234.007a1.026,1.026,0,0,0,0-2.05,1.026,1.026,0,0,0,0,2.05" transform="translate(-179.14 -231.957)" fill="#fff"/>
              </g>
            </g>
          </g>
          <g id="Group_204" data-name="Group 204" transform="translate(89.597 141.298)" opacity="0.46">
            <g id="Group_203" data-name="Group 203">
              <g id="Group_202" data-name="Group 202" clip-path="url(#clip-path-18)">
                <path id="Path_234" data-name="Path 234" d="M173.336,273.845a1.026,1.026,0,0,0,0-2.05,1.026,1.026,0,0,0,0,2.05" transform="translate(-172.346 -271.795)" fill="#fff"/>
              </g>
            </g>
          </g>
          <g id="Group_207" data-name="Group 207" transform="translate(77.235 152.696)" opacity="0.46">
            <g id="Group_206" data-name="Group 206">
              <g id="Group_205" data-name="Group 205" clip-path="url(#clip-path-18)">
                <path id="Path_235" data-name="Path 235" d="M149.557,295.771a1.026,1.026,0,0,0,0-2.05,1.026,1.026,0,0,0,0,2.05" transform="translate(-148.567 -293.721)" fill="#fff"/>
              </g>
            </g>
          </g>
          <g id="Group_210" data-name="Group 210" transform="translate(77.717 127.169)" opacity="0.46">
            <g id="Group_209" data-name="Group 209">
              <g id="Group_208" data-name="Group 208" clip-path="url(#clip-path-18)">
                <path id="Path_236" data-name="Path 236" d="M150.483,246.668a1.026,1.026,0,0,0,0-2.05,1.026,1.026,0,0,0,0,2.05" transform="translate(-149.493 -244.618)" fill="#fff"/>
              </g>
            </g>
          </g>
          <g id="Group_213" data-name="Group 213" transform="translate(84.781 107.261)" opacity="0.46">
            <g id="Group_212" data-name="Group 212">
              <g id="Group_211" data-name="Group 211" clip-path="url(#clip-path-17)">
                <path id="Path_237" data-name="Path 237" d="M164.071,208.374a1.026,1.026,0,0,0,0-2.05,1.026,1.026,0,0,0,0,2.05" transform="translate(-163.082 -206.324)" fill="#fff"/>
              </g>
            </g>
          </g>
          <g id="Group_216" data-name="Group 216" transform="translate(84.781 91.849)" opacity="0.46">
            <g id="Group_215" data-name="Group 215">
              <g id="Group_214" data-name="Group 214" clip-path="url(#clip-path-17)">
                <path id="Path_238" data-name="Path 238" d="M164.071,178.728a1.026,1.026,0,0,0,0-2.05,1.026,1.026,0,0,0,0,2.05" transform="translate(-163.082 -176.678)" fill="#fff"/>
              </g>
            </g>
          </g>
          <g id="Group_219" data-name="Group 219" transform="translate(109.826 124.44)" opacity="0.46">
            <g id="Group_218" data-name="Group 218">
              <g id="Group_217" data-name="Group 217" clip-path="url(#clip-path-18)">
                <path id="Path_239" data-name="Path 239" d="M212.248,241.418a1.026,1.026,0,0,0,0-2.05,1.026,1.026,0,0,0,0,2.05" transform="translate(-211.258 -239.368)" fill="#fff"/>
              </g>
            </g>
          </g>
          <g id="Group_222" data-name="Group 222" transform="translate(75.309 111.115)" opacity="0.46">
            <g id="Group_221" data-name="Group 221">
              <g id="Group_220" data-name="Group 220" clip-path="url(#clip-path-18)">
                <path id="Path_240" data-name="Path 240" d="M145.851,215.786a1.026,1.026,0,0,0,0-2.05,1.026,1.026,0,0,0,0,2.05" transform="translate(-144.861 -213.736)" fill="#fff"/>
              </g>
            </g>
          </g>
        </g>
      </g>
    </g>
  </g>
</svg>
