<svg id="Group_635" data-name="Group 635" xmlns="http://www.w3.org/2000/svg" xmlns:xlink="http://www.w3.org/1999/xlink" width="260.5" height="220.939" viewBox="0 0 260.5 220.939">
  <defs>
    <clipPath id="clip-path">
      <rect id="Rectangle_605" data-name="Rectangle 605" width="260.5" height="220.939" fill="none"/>
    </clipPath>
    <clipPath id="clip-path-3">
      <rect id="Rectangle_584" data-name="Rectangle 584" width="249.796" height="41.779" fill="none"/>
    </clipPath>
    <clipPath id="clip-path-4">
      <rect id="Rectangle_585" data-name="Rectangle 585" width="257.859" height="176.977" fill="none"/>
    </clipPath>
    <clipPath id="clip-path-5">
      <rect id="Rectangle_586" data-name="Rectangle 586" width="240.919" height="144.451" fill="none"/>
    </clipPath>
    <clipPath id="clip-path-6">
      <rect id="Rectangle_587" data-name="Rectangle 587" width="36.724" height="27.348" fill="none"/>
    </clipPath>
    <clipPath id="clip-path-7">
      <rect id="Rectangle_588" data-name="Rectangle 588" width="15.689" height="37.266" fill="none"/>
    </clipPath>
    <clipPath id="clip-path-8">
      <rect id="Rectangle_589" data-name="Rectangle 589" width="7.87" height="33.823" fill="none"/>
    </clipPath>
    <clipPath id="clip-path-9">
      <rect id="Rectangle_590" data-name="Rectangle 590" width="21.462" height="38.761" fill="none"/>
    </clipPath>
    <clipPath id="clip-path-10">
      <rect id="Rectangle_591" data-name="Rectangle 591" width="49.253" height="26.739" fill="none"/>
    </clipPath>
    <clipPath id="clip-path-11">
      <rect id="Rectangle_592" data-name="Rectangle 592" width="58.984" height="23.651" fill="none"/>
    </clipPath>
    <clipPath id="clip-path-12">
      <rect id="Rectangle_593" data-name="Rectangle 593" width="10.421" height="9.95" fill="none"/>
    </clipPath>
    <clipPath id="clip-path-13">
      <rect id="Rectangle_594" data-name="Rectangle 594" width="26.059" height="30.296" fill="none"/>
    </clipPath>
    <clipPath id="clip-path-14">
      <rect id="Rectangle_595" data-name="Rectangle 595" width="20.668" height="31.656" fill="none"/>
    </clipPath>
    <clipPath id="clip-path-15">
      <rect id="Rectangle_596" data-name="Rectangle 596" width="114.784" height="61.66" fill="none"/>
    </clipPath>
    <clipPath id="clip-path-16">
      <rect id="Rectangle_597" data-name="Rectangle 597" width="122.611" height="63.54" fill="none"/>
    </clipPath>
    <clipPath id="clip-path-17">
      <rect id="Rectangle_598" data-name="Rectangle 598" width="37.792" height="47.391" fill="none"/>
    </clipPath>
    <clipPath id="clip-path-18">
      <rect id="Rectangle_599" data-name="Rectangle 599" width="36.147" height="49.638" fill="none"/>
    </clipPath>
    <clipPath id="clip-path-19">
      <rect id="Rectangle_600" data-name="Rectangle 600" width="48.662" height="28.308" fill="none"/>
    </clipPath>
    <clipPath id="clip-path-20">
      <rect id="Rectangle_601" data-name="Rectangle 601" width="57.05" height="21.42" fill="none"/>
    </clipPath>
    <clipPath id="clip-path-22">
      <rect id="Rectangle_603" data-name="Rectangle 603" width="49.804" height="62.058" fill="none"/>
    </clipPath>
  </defs>
  <g id="Group_634" data-name="Group 634" clip-path="url(#clip-path)">
    <g id="Group_628" data-name="Group 628">
      <g id="Group_627" data-name="Group 627" clip-path="url(#clip-path)">
        <g id="Group_575" data-name="Group 575" transform="translate(5.464 179.16)" opacity="0.67">
          <g id="Group_574" data-name="Group 574">
            <g id="Group_573" data-name="Group 573" clip-path="url(#clip-path-3)">
              <path id="Path_508" data-name="Path 508" d="M9.43,330.064c0,11.537,55.919,20.889,124.9,20.889s124.9-9.352,124.9-20.889-55.919-20.89-124.9-20.89-124.9,9.353-124.9,20.89" transform="translate(-9.43 -309.174)" fill="#95c7b3"/>
            </g>
          </g>
        </g>
        <g id="Group_578" data-name="Group 578" transform="translate(2.486 22.95)" opacity="0.35">
          <g id="Group_577" data-name="Group 577">
            <g id="Group_576" data-name="Group 576" clip-path="url(#clip-path-4)">
              <path id="Path_509" data-name="Path 509" d="M132.166,195.814c-67.343,0-122.227,8.915-124.794,20.073C1.009,204.161,4.834,187.573,15.73,180.2c2.776-1.878,5.919-3.218,8.369-5.532,7.561-7.142,5.566-19.661,7.5-30.072a35.96,35.96,0,0,1,19.636-25.713C61.917,113.916,75,114.59,84.213,107.1c8.193-6.663,11.071-17.935,15.8-27.553,10.821-22.03,33.421-36.789,57.134-39.465s48.019,6.092,66.406,21.84c9.829,8.419,18.293,19.123,21.873,31.807,5.434,19.253-.958,39.645-3.151,59.576a19.427,19.427,0,0,0,.337,8.134c1.966,6.023,8.638,8.635,12.993,13.114,8.854,9.1,6.973,24.158,4.455,36.817l-3,5.213c-.4-11.48-56.155-20.766-124.889-20.766" transform="translate(-4.289 -39.604)" fill="#95c7b3"/>
            </g>
          </g>
        </g>
        <path id="Path_510" data-name="Path 510" d="M403,344.412c0,2.026-9.443,3.668-21.092,3.668s-21.092-1.642-21.092-3.668,9.443-3.668,21.092-3.668S403,342.386,403,344.412" transform="translate(-151.73 -143.29)" fill="#95c7b3"/>
        <g id="Group_581" data-name="Group 581" opacity="0.35">
          <g id="Group_580" data-name="Group 580">
            <g id="Group_579" data-name="Group 579" clip-path="url(#clip-path-5)">
              <path id="Path_511" data-name="Path 511" d="M188.664,21.452l-2.688-7.9L178,11.077l8.18-2.823L188.783,0l2.688,7.9,7.973,2.472L191.091,13.4Z" transform="translate(-74.854 0)" fill="#95c7b3"/>
              <path id="Path_512" data-name="Path 512" d="M338.892,98.444l-2.688-7.9-7.973-2.473,8.18-2.823,2.6-8.254,2.688,7.9,7.972,2.472-8.353,3.023Z" transform="translate(-138.028 -32.377)" fill="#95c7b3"/>
              <path id="Path_513" data-name="Path 513" d="M384.534,115l-1.37-4.028-4.064-1.26,4.169-1.439,1.325-4.207,1.37,4.028,4.064,1.26-4.257,1.54Z" transform="translate(-159.419 -43.763)" fill="#95c7b3"/>
              <path id="Path_514" data-name="Path 514" d="M5.434,241.342l-1.37-4.029L0,236.054l4.169-1.439,1.325-4.207,1.37,4.028,4.064,1.26-4.257,1.54Z" transform="translate(0 -96.891)" fill="#95c7b3"/>
              <path id="Path_515" data-name="Path 515" d="M360.072,132.032,358.7,128l-4.064-1.26,4.17-1.439,1.325-4.207,1.37,4.028,4.064,1.26-4.257,1.54Z" transform="translate(-149.132 -50.924)" fill="#95c7b3"/>
              <path id="Path_516" data-name="Path 516" d="M40.4,53.922l-1.37-4.028-4.064-1.26,4.169-1.439,1.325-4.207,1.37,4.028,4.064,1.26-4.257,1.54Z" transform="translate(-14.706 -18.077)" fill="#95c7b3"/>
              <path id="Path_517" data-name="Path 517" d="M93.479,75.727a1.2,1.2,0,1,1-1.2-1.2,1.2,1.2,0,0,1,1.2,1.2" transform="translate(-38.303 -31.341)" fill="#95c7b3"/>
              <path id="Path_518" data-name="Path 518" d="M414.012,173.761a1.2,1.2,0,1,1-1.2-1.2,1.2,1.2,0,0,1,1.2,1.2" transform="translate(-173.093 -72.566)" fill="#95c7b3"/>
              <path id="Path_519" data-name="Path 519" d="M410.362,201.148a1.2,1.2,0,1,1-1.2-1.2,1.2,1.2,0,0,1,1.2,1.2" transform="translate(-171.558 -84.083)" fill="#95c7b3"/>
              <path id="Path_520" data-name="Path 520" d="M386.624,196.4a1.2,1.2,0,1,1-1.2-1.2,1.2,1.2,0,0,1,1.2,1.2" transform="translate(-161.576 -82.086)" fill="#95c7b3"/>
              <path id="Path_521" data-name="Path 521" d="M59.726,153.567a1.2,1.2,0,1,1-1.2-1.2,1.2,1.2,0,0,1,1.2,1.2" transform="translate(-24.108 -64.074)" fill="#95c7b3"/>
              <path id="Path_522" data-name="Path 522" d="M47.326,138.412a1.2,1.2,0,1,1-1.2-1.2,1.2,1.2,0,0,1,1.2,1.2" transform="translate(-18.894 -57.702)" fill="#95c7b3"/>
              <path id="Path_523" data-name="Path 523" d="M332.6,61.568a1.2,1.2,0,1,1-1.2-1.2,1.2,1.2,0,0,1,1.2,1.2" transform="translate(-138.856 -25.387)" fill="#95c7b3"/>
            </g>
          </g>
        </g>
        <path id="Path_524" data-name="Path 524" d="M406.09,307.066a18.4,18.4,0,0,0-.509-4.29h-.306c-.594-2.567-8.311-4.6-17.749-4.6-9.826,0-17.791,2.2-17.791,4.916a1.411,1.411,0,0,0,.022.242,18.3,18.3,0,0,0,10.507,20.506c-1.561.422-2.516.977-2.516,1.586,0,1.322,4.468,2.395,9.979,2.395s9.979-1.073,9.979-2.395c0-.609-.955-1.164-2.516-1.586a18.362,18.362,0,0,0,10.9-16.776" transform="translate(-155.326 -125.39)" fill="#dc903c"/>
        <g id="Group_584" data-name="Group 584" transform="translate(214.04 175.085)" opacity="0.11">
          <g id="Group_583" data-name="Group 583">
            <g id="Group_582" data-name="Group 582" clip-path="url(#clip-path-6)">
              <path id="Path_525" data-name="Path 525" d="M406.09,308.733a18.4,18.4,0,0,0-.509-4.29h-.306c-.195-.843-1.162-1.627-2.7-2.3a10.457,10.457,0,0,1,1.7,4.988c.376,4.8-2.45,9.829-6.429,12.411-4.005,2.6-9.171,2.762-13.679,1.6-6.6-1.709-12.383-6.355-14.8-12.4h0a18.362,18.362,0,0,0,10.9,16.776c-1.561.422-2.516.977-2.516,1.586,0,1.322,4.468,2.395,9.979,2.395s9.979-1.073,9.979-2.395c0-.609-.955-1.164-2.516-1.586a18.362,18.362,0,0,0,10.9-16.776" transform="translate(-369.366 -302.142)" fill="#2b3448"/>
            </g>
          </g>
        </g>
        <path id="Path_526" data-name="Path 526" d="M404.655,303.774c0,2.2-6.448,3.979-14.4,3.979s-14.4-1.781-14.4-3.979,6.448-3.979,14.4-3.979,14.4,1.781,14.4,3.979" transform="translate(-158.053 -126.07)" fill="#74471b"/>
        <path id="Path_527" data-name="Path 527" d="M388.346,281.366a31.016,31.016,0,0,1-7.727-5.974c-2.113-2.5-3.435-5.882-2.688-9.067.366-1.559,1.207-3.034,1.175-4.635-.068-3.377-3.719-5.349-5.728-8.064-2.418-3.265-2.41-7.667-2.3-11.728,1.482,4.435,6.568,6.316,10.148,9.323,3.964,3.33,6.221,8.339,7.184,13.425s.755,10.312.542,15.485Z" transform="translate(-156.03 -101.723)" fill="#5ca28b"/>
        <g id="Group_587" data-name="Group 587" transform="translate(215.011 141.26)" opacity="0.18">
          <g id="Group_586" data-name="Group 586">
            <g id="Group_585" data-name="Group 585" clip-path="url(#clip-path-7)">
              <path id="Path_528" data-name="Path 528" d="M384.192,260.4c-2.7-6.853-9.389-10.7-13.14-16.634-.066,3.747.121,7.667,2.325,10.644,2.01,2.714,5.66,4.687,5.729,8.063.032,1.6-.81,3.076-1.175,4.635-.746,3.184.575,6.57,2.688,9.066a25.631,25.631,0,0,0,5.938,4.857c.435-7.039.192-14.142-2.365-20.632" transform="translate(-371.042 -243.77)" fill="#2b3448"/>
            </g>
          </g>
        </g>
        <path id="Path_529" data-name="Path 529" d="M398.291,280.686a16.009,16.009,0,0,1-2.368-16.112c1.533-3.619,4.45-6.755,4.831-10.667.19-1.945-.281-3.892-.332-5.846a13.751,13.751,0,0,1,2.155-7.727c-.763,8.034,4.951,15.464,4.927,23.534-.018,6.211-9.213,16.819-9.213,16.819" transform="translate(-165.992 -101.065)" fill="#5ca28b"/>
        <g id="Group_590" data-name="Group 590" transform="translate(233.642 142.986)" opacity="0.18">
          <g id="Group_589" data-name="Group 589">
            <g id="Group_588" data-name="Group 588" clip-path="url(#clip-path-8)">
              <path id="Path_530" data-name="Path 530" d="M406.208,253.069A70.081,70.081,0,0,1,404,271.46a21.83,21.83,0,0,0-.534,9.112,17.265,17.265,0,0,0,7.6-14.006c.02-6.812-4.048-13.168-4.858-19.816a59.833,59.833,0,0,0,0,6.319" transform="translate(-403.192 -246.749)" fill="#2b3448"/>
            </g>
          </g>
        </g>
        <path id="Path_531" data-name="Path 531" d="M400.789,278.65c.03-5.174.263-10.882,3.8-14.654,2.975-3.168,7.8-4.344,10.228-7.945,2.118-3.134,1.854-7.239,2.728-10.92a17.615,17.615,0,0,1,6.07-9.592q.5,5.646,1,11.293c.4,4.493.784,9.129-.6,13.421-1.471,4.551-4.838,8.3-8.731,11.077a67.519,67.519,0,0,1-12.714,6.587Z" transform="translate(-168.54 -99.049)" fill="#5ca28b"/>
        <g id="Group_593" data-name="Group 593" transform="translate(234.992 139.694)" opacity="0.18">
          <g id="Group_592" data-name="Group 592">
            <g id="Group_591" data-name="Group 591" clip-path="url(#clip-path-9)">
              <path id="Path_532" data-name="Path 532" d="M425.895,241.068c-1.416,3.771-2.019,7.857-3.282,11.672a40.155,40.155,0,0,1-9.27,15.019c-3.695,3.947-6.594,7.058-7.82,12.069a62.93,62.93,0,0,0,11.758-6.173c3.893-2.779,7.26-6.527,8.73-11.077,1.387-4.292,1-8.928.6-13.42l-.72-8.09" transform="translate(-405.523 -241.068)" fill="#2b3448"/>
            </g>
          </g>
        </g>
        <path id="Path_533" data-name="Path 533" d="M157.694,163.085s-20.058,9.261-24.418,9.261c-1.317,0-3.646-1.4-6.261-3.375q-.432-.314-.863-.654c-5.9-4.587-12.819-11.45-12.819-11.45-6.767,6.1-14.285,6.541-14.616,2.5a3.081,3.081,0,0,1,.052-.785c.776-4.326,9.531-12.436,12.706-13.055,3.375-.654,21.583,13.194,21.583,13.194l10.1-4.761L154.32,148.7Z" transform="translate(-41.51 -61.189)" fill="#5c7e99"/>
        <g id="Group_596" data-name="Group 596" transform="translate(60.064 84.405)" style="mix-blend-mode: multiply;isolation: isolate">
          <g id="Group_595" data-name="Group 595">
            <g id="Group_594" data-name="Group 594" clip-path="url(#clip-path-10)">
              <path id="Path_534" data-name="Path 534" d="M144.65,161.383l-.731-.522a46.043,46.043,0,0,1-5.363,10.316q.33.288.665.575a39.466,39.466,0,0,0,3.588-6.116c.107,1.761.143,3.708.143,5.554,0,1.273-.017,2.5-.043,3.583q.432.341.863.654c.026-1.229.052-2.694.052-4.238,0-2.422-.061-5.017-.262-7.178.4-.9.761-1.785,1.089-2.63" transform="translate(-118.329 -152.05)" fill="#5c7e99"/>
              <path id="Path_535" data-name="Path 535" d="M139.825,156.766l-.791-.538a89.2,89.2,0,0,1-2.022,8.7c-.3,1.1-.6,2.132-.877,3.07q.357.318.721.639c.307-1.037.65-2.222,1-3.477.763-2.769,1.532-5.842,1.972-8.39" transform="translate(-117.311 -150.102)" fill="#5c7e99"/>
              <path id="Path_536" data-name="Path 536" d="M123.407,146.026a7.769,7.769,0,0,0-1.139-.369,20.575,20.575,0,0,1,1.683,5.23,46.358,46.358,0,0,1,.762,7.483c.266.256.567.544.891.852a48.824,48.824,0,0,0-.8-8.5,23.141,23.141,0,0,0-1.4-4.693" transform="translate(-111.48 -145.656)" fill="#5c7e99"/>
              <path id="Path_537" data-name="Path 537" d="M104.441,157.818q-.409.469-.79.939c.016.2.032.409.047.627.088,1.3.15,2.879.15,4.5,0,1.09-.028,2.2-.094,3.255a6.8,6.8,0,0,0,.87.041c.067-1.074.1-2.194.1-3.3,0-1.963-.089-3.861-.209-5.31-.022-.269-.046-.516-.07-.752" transform="translate(-103.651 -150.77)" fill="#5c7e99"/>
              <path id="Path_538" data-name="Path 538" d="M135.251,154.31q-.386-.256-.77-.506a34.436,34.436,0,0,1-4.151,10.1l.643.6a33.4,33.4,0,0,0,4.077-9.447c.071-.254.137-.5.2-.746" transform="translate(-114.87 -149.082)" fill="#5c7e99"/>
              <path id="Path_539" data-name="Path 539" d="M109.132,153.08q-.336.314-.669.638a25.99,25.99,0,0,1,1.43,7.1c.12,1.315.189,2.589.231,3.7.283-.1.569-.2.86-.319-.043-1.054-.111-2.236-.223-3.459a25.184,25.184,0,0,0-1.63-7.66" transform="translate(-105.675 -148.778)" fill="#5c7e99"/>
              <path id="Path_540" data-name="Path 540" d="M113.561,149.3c-.228.174-.458.353-.69.542a25.371,25.371,0,0,1,1.937,2.142,18.32,18.32,0,0,1,3.657,7.168c.246-.2.492-.4.736-.623A19.786,19.786,0,0,0,115.119,151c-.542-.645-1.071-1.205-1.559-1.691" transform="translate(-107.528 -147.19)" fill="#5c7e99"/>
              <path id="Path_541" data-name="Path 541" d="M152.86,167.122c-.3,1.057-.681,2.307-1.156,3.633a30.5,30.5,0,0,1-3.727,7.495q.356.263.7.511a33.517,33.517,0,0,0,4.257-8.905c.256-.774.48-1.507.672-2.172l-.748-.561" transform="translate(-122.291 -154.683)" fill="#5c7e99"/>
              <path id="Path_542" data-name="Path 542" d="M183.094,169.561c-1-3.73-2.672-7.976-5.574-10.759l-.852.4c2.848,2.574,4.586,6.813,5.583,10.581.213.8.384,1.564.537,2.3l.822-.354c-.147-.693-.316-1.42-.516-2.169" transform="translate(-134.356 -151.184)" fill="#5c7e99"/>
              <path id="Path_543" data-name="Path 543" d="M171.617,161.608a29.238,29.238,0,0,1,2.013,10.2,20.439,20.439,0,0,1-.464,4.382q.475-.184.954-.374a21.581,21.581,0,0,0,.381-4.008,30.145,30.145,0,0,0-2.095-10.571Z" transform="translate(-132.232 -152.207)" fill="#5c7e99"/>
              <path id="Path_544" data-name="Path 544" d="M164.655,164.893l-.788.371a23.631,23.631,0,0,1,1.948,6.787,54.842,54.842,0,0,1,.568,6.981q.426-.149.866-.308a55.291,55.291,0,0,0-.572-6.806,24.458,24.458,0,0,0-2.022-7.026" transform="translate(-128.973 -153.746)" fill="#5c7e99"/>
              <path id="Path_545" data-name="Path 545" d="M158.952,166.748c.03.579.053,1.293.053,2.1a37.023,37.023,0,0,1-.576,6.721,16.736,16.736,0,0,1-1.853,5.331,3.53,3.53,0,0,0,.9.194,17.99,17.99,0,0,0,1.815-5.362,37.909,37.909,0,0,0,.591-6.884c0-1-.034-1.856-.075-2.5Z" transform="translate(-125.907 -154.357)" fill="#5c7e99"/>
            </g>
          </g>
        </g>
        <g id="Group_599" data-name="Group 599" transform="translate(57.201 87.507)" style="mix-blend-mode: multiply;isolation: isolate">
          <g id="Group_598" data-name="Group 598">
            <g id="Group_597" data-name="Group 597" clip-path="url(#clip-path-11)">
              <path id="Path_546" data-name="Path 546" d="M157.694,165.4s-20.058,9.261-24.418,9.261c-1.317,0-3.646-1.4-6.261-3.375q-.432-.314-.863-.654c-5.9-4.587-12.819-11.45-12.819-11.45-6.767,6.1-14.285,6.541-14.616,2.5a3.081,3.081,0,0,1,.052-.785c4.613.009,14.014-6.078,14.014-6.078s17.118,11.45,19.621,12.863c1.857,1.047,6.837-6.357,10.752-11.406l11.163-5.267Z" transform="translate(-98.711 -151.01)" fill="#5c7e99"/>
            </g>
          </g>
        </g>
        <path id="Path_547" data-name="Path 547" d="M201.79,143.2l-12.13,1.6-.183-1.169-.148-.916-.227-1.386-.157-.986-.576-3.61,8.642-3.855.375.8.375.819L199,137.167l.366.8Z" transform="translate(-79.213 -55.877)" fill="#5c7e99"/>
        <g id="Group_602" data-name="Group 602" transform="translate(109.731 77.802)" style="mix-blend-mode: multiply;isolation: isolate">
          <g id="Group_601" data-name="Group 601">
            <g id="Group_600" data-name="Group 600" clip-path="url(#clip-path-12)">
              <path id="Path_548" data-name="Path 548" d="M198.179,135.081l-8.659,6.828-.157-.985,8.441-6.662Z" transform="translate(-189.362 -134.261)" fill="#5c7e99"/>
              <path id="Path_549" data-name="Path 549" d="M200.062,141.083l-9.889,5.66-.148-.916,9.671-5.546Z" transform="translate(-189.641 -136.792)" fill="#5c7e99"/>
            </g>
          </g>
        </g>
        <path id="Path_550" data-name="Path 550" d="M203.132,105.839a4.9,4.9,0,0,1,3.131-2.728c2.156-.433,6.434,7.655-.992,9.089Z" transform="translate(-85.421 -43.353)" fill="#17171f"/>
        <path id="Path_551" data-name="Path 551" d="M180.694,117.64c-4.561,1.134-8.633.68-11.868-3.253a21.163,21.163,0,0,1-3.288-6.122c-3.488-9.479-4.029-19.3,6-21.688,3.619-.872,6.392-.855,8.581-.052,2.616.942,4.369,3.017,5.686,6.035a33.024,33.024,0,0,1,1.648,5.023c.654,2.564,1.343,5.05,1.727,7.352.985,5.852.035,10.6-8.485,12.706" transform="translate(-68.651 -36.133)" fill="#5c7e99"/>
        <path id="Path_552" data-name="Path 552" d="M190.52,109.75l-24.077,1.587c4.665-6.078,16.377-11.938,20.7-13.962a32.906,32.906,0,0,1,1.648,5.024c.654,2.564,1.343,5.049,1.727,7.351" transform="translate(-69.993 -40.948)" fill="#17171f"/>
        <path id="Path_553" data-name="Path 553" d="M191.791,110.156a2.889,2.889,0,1,1-2.889-2.889,2.889,2.889,0,0,1,2.889,2.889" transform="translate(-78.223 -45.108)" fill="#fff"/>
        <path id="Path_554" data-name="Path 554" d="M191.421,111.144a1.526,1.526,0,1,1-1.526-1.518,1.332,1.332,0,0,1,.524.1.639.639,0,1,0,.9.872,1.391,1.391,0,0,1,.1.541" transform="translate(-79.213 -46.1)" fill="#17171f"/>
        <g id="Group_605" data-name="Group 605" transform="translate(94.605 51.717)" style="mix-blend-mode: multiply;isolation: isolate">
          <g id="Group_604" data-name="Group 604">
            <g id="Group_603" data-name="Group 603" clip-path="url(#clip-path-13)">
              <path id="Path_555" data-name="Path 555" d="M183.144,89.852a8.705,8.705,0,0,0-.675-.6,79.794,79.794,0,0,0-7,4.831c-3.663-.319-7.765-.4-10.968-.4h-.306q-.181.426-.325.873l.631,0c2.914,0,6.577.068,9.95.32-1.419,1.12-2.751,2.233-3.968,3.294-.471-.037-1.853-.133-3.661-.133-1.073,0-2.293.042-3.547.143q-.016.434-.011.877c1.253-.1,2.481-.148,3.558-.148,1.1,0,2.041.037,2.711.072l.026,0c-2.55,2.269-4.515,4.217-5.62,5.348.075.333.156.666.242,1a103.144,103.144,0,0,1,18.968-15.477" transform="translate(-163.259 -89.248)" fill="#5c7e99"/>
              <path id="Path_556" data-name="Path 556" d="M167.573,125.422c.119.3.237.609.36.9l8.337.519-4.985,4.864c.205.216.413.42.624.61l5.534-5.4,5.682.354-6.433,7.37a10.5,10.5,0,0,0,1.052.121l6.479-7.423,6.712.418c.08-.281.145-.568.2-.862Z" transform="translate(-165.073 -104.46)" fill="#5c7e99"/>
            </g>
          </g>
        </g>
        <g id="Group_608" data-name="Group 608" transform="translate(100.174 50.393)" style="mix-blend-mode: multiply;isolation: isolate">
          <g id="Group_607" data-name="Group 607">
            <g id="Group_606" data-name="Group 606" clip-path="url(#clip-path-14)">
              <path id="Path_557" data-name="Path 557" d="M184.737,118.077c-4.561,1.134-8.633.68-11.868-3.253,2.319.017,11.223-.288,13.395-6.34,2.058-5.738-.96-17.511-2.1-21.522,2.616.942,4.369,3.017,5.686,6.035A33.027,33.027,0,0,1,191.5,98.02c.654,2.564,1.343,5.05,1.727,7.352.985,5.852.035,10.6-8.485,12.706" transform="translate(-172.868 -86.962)" fill="#5c7e99"/>
            </g>
          </g>
        </g>
        <path id="Path_558" data-name="Path 558" d="M205.426,281.418a11.006,11.006,0,0,1-.043,1.343c-.428,5.4-4.343,4.752-6.5,2.729-2.328-2.18-5.965-12.069-5.965-12.069s-24.121-5.372-25.865-6.828-13.081-26.014-13.081-26.014l-26.746,5.233L115.6,270.517s-.3,7.7-.872,9.3-8,1.884-21.95-.3c-8.189-1.282-10.316-3.854-9.976-6.1a5.369,5.369,0,0,1,3.148-3.636c3.488-1.6,16.709-2.477,16.709-2.477S111.531,235.2,114,231.859c1.683-2.276,14.9-5.354,23.206-7.089,3.924-.82,6.741-1.343,6.741-1.343l21.6,5.729,9.645,2.556,5.52,21.217,16.43,10.465s3.488-1.6,5.372-.576,2.764,11.773,2.912,18.6" transform="translate(-34.807 -93.955)" fill="#5c7e99"/>
        <g id="Group_611" data-name="Group 611" transform="translate(55.772 129.471)" style="mix-blend-mode: multiply;isolation: isolate">
          <g id="Group_610" data-name="Group 610">
            <g id="Group_609" data-name="Group 609" clip-path="url(#clip-path-15)">
              <path id="Path_559" data-name="Path 559" d="M226.734,272.378a21.6,21.6,0,0,1,10.6-6.479c.275-.078.534-.139.8-.2l-.221-.849c-.265.066-.534.136-.812.213a22.465,22.465,0,0,0-11.022,6.747,24.221,24.221,0,0,0-3.891,6.138q.264.518.517,1.005a23.257,23.257,0,0,1,4.033-6.573" transform="translate(-149.204 -240.844)" fill="#5c7e99"/>
              <path id="Path_560" data-name="Path 560" d="M241.532,281.361a16.6,16.6,0,0,0,2.328-6.232l-.8-.507a15.76,15.76,0,0,1-2.27,6.274,19.377,19.377,0,0,1-8.325,6.977c-.728.338-1.413.615-2.036.841.369.134.8.279,1.291.433A24.909,24.909,0,0,0,235.854,287a18.719,18.719,0,0,0,5.678-5.634" transform="translate(-152.674 -244.955)" fill="#5c7e99"/>
              <path id="Path_561" data-name="Path 561" d="M286.448,305.151c-.053-.494-.111-.979-.172-1.453a23.81,23.81,0,0,1-7.463,8.084c-.648.451-1.271.839-1.872,1.2q.179.4.365.805c.639-.378,1.313-.8,2.005-1.286a25.266,25.266,0,0,0,7.136-7.347" transform="translate(-172.231 -257.182)" fill="#5c7e99"/>
              <path id="Path_562" data-name="Path 562" d="M281.589,324.24a8.613,8.613,0,0,0,.529.709,54.474,54.474,0,0,1,6.851-5.691c-.013-.34-.028-.687-.045-1.037a56.8,56.8,0,0,0-7.336,6.02" transform="translate(-174.186 -263.289)" fill="#5c7e99"/>
              <path id="Path_563" data-name="Path 563" d="M227.856,251.7a12.783,12.783,0,0,1,6.325,2.181l-.31-1.191a12.743,12.743,0,0,0-6.015-1.861,6.626,6.626,0,0,0-5.206,2.442c-2.74,3.192-4.756,7.808-6.189,12.089l.548,1.126c1.424-4.456,3.513-9.408,6.3-12.646a5.742,5.742,0,0,1,4.545-2.139" transform="translate(-146.798 -234.948)" fill="#5c7e99"/>
              <path id="Path_564" data-name="Path 564" d="M256.621,291.13a15.258,15.258,0,0,0,2.019-7.888c0-.7-.039-1.315-.086-1.807l-.95-.6a17.273,17.273,0,0,1,.165,2.412,14.405,14.405,0,0,1-1.892,7.434,11,11,0,0,1-4.293,4.006l1.208.294a11.74,11.74,0,0,0,3.83-3.846" transform="translate(-161.568 -247.566)" fill="#5c7e99"/>
              <path id="Path_565" data-name="Path 565" d="M278.388,299.673a10.209,10.209,0,0,0,1.5-5.359,12.019,12.019,0,0,0-.426-3.093c-.3.073-.585.154-.84.236a10.911,10.911,0,0,1,.395,2.857,9.33,9.33,0,0,1-1.379,4.908,13.641,13.641,0,0,1-3.925,4.016c.1.25.208.531.328.834a14.636,14.636,0,0,0,4.343-4.4" transform="translate(-170.875 -251.935)" fill="#5c7e99"/>
              <path id="Path_566" data-name="Path 566" d="M266.507,285.387l-.939-.6a20.578,20.578,0,0,1,.159,2.464,15.932,15.932,0,0,1-3.767,10.529l.947.22a16.818,16.818,0,0,0,3.691-10.749c0-.6-.034-1.226-.092-1.865" transform="translate(-165.931 -249.23)" fill="#5c7e99"/>
              <path id="Path_567" data-name="Path 567" d="M98.35,304.367c-.426-1.2-.852-2.284-1.219-3.166q-.45.07-.886.143c.5,1.182,1.117,2.763,1.7,4.535a38.859,38.859,0,0,1,1.594,6.519c.3.046.607.092.9.135a41.636,41.636,0,0,0-2.091-8.165" transform="translate(-96.245 -256.132)" fill="#5c7e99"/>
              <path id="Path_568" data-name="Path 568" d="M130.174,307.061c-.024-.047-.046-.093-.071-.141-3.243-6.252-8.794-13.341-10.909-15.958q-.153.539-.291,1.029c1.556,1.945,4.343,5.542,6.92,9.448a62,62,0,0,1,3.983,6.834c.012.023.021.046.033.07a.787.787,0,0,0,.083-.125,6.971,6.971,0,0,0,.251-1.159" transform="translate(-105.773 -251.826)" fill="#5c7e99"/>
              <path id="Path_569" data-name="Path 569" d="M112.813,303.856a24.3,24.3,0,0,0-2.227-4.221c-.32.028-.651.059-1,.092a22.193,22.193,0,0,1,2.422,4.468,60.182,60.182,0,0,1,2.769,8.7c.312.025.617.048.917.07-.143-.587-.3-1.191-.46-1.808a57.043,57.043,0,0,0-2.422-7.3" transform="translate(-101.856 -255.473)" fill="#5c7e99"/>
              <path id="Path_570" data-name="Path 570" d="M122.866,287.678c-.885-.52-1.663-1.024-2.287-1.482l-.254.892c.79.559,1.752,1.15,2.835,1.768,2.918,1.657,6.653,3.445,9.74,4.854l.371-.79c-1.484-.677-3.116-1.441-4.735-2.236-2.026-.994-4.027-2.037-5.671-3.006" transform="translate(-106.371 -249.822)" fill="#5c7e99"/>
              <path id="Path_571" data-name="Path 571" d="M138.437,279.769a56.1,56.1,0,0,1-14.062-2.244c-.408-.112-.794-.224-1.177-.336-.082.281-.165.563-.246.839a59.4,59.4,0,0,0,15.421,2.613l.414-.881c-.117,0-.232.009-.35.009" transform="translate(-107.476 -246.034)" fill="#5c7e99"/>
              <path id="Path_572" data-name="Path 572" d="M152.424,245.4c1.184,1.559,2.187,3.061,3,4.378l.914-.179c-.858-1.4-1.934-3.028-3.222-4.726a38.091,38.091,0,0,0-11.2-10.253c-.373.143-.717.284-1.042.425A36.546,36.546,0,0,1,152.424,245.4" transform="translate(-115.014 -228.135)" fill="#5c7e99"/>
              <path id="Path_573" data-name="Path 573" d="M159.5,231.149c2.624,3.2,5.309,8.233,6.14,15.926l.859-.168c-.886-8.084-3.8-13.367-6.61-16.653-.215-.251-.429-.488-.641-.717-.326.081-.649.162-.972.244.4.414.813.866,1.226,1.368" transform="translate(-122.331 -225.996)" fill="#5c7e99"/>
              <path id="Path_574" data-name="Path 574" d="M172.817,226.432l-.9.195a21.443,21.443,0,0,1,1.778,3.567,61.3,61.3,0,0,1,3.034,11.412c.195,1.093.352,2.106.483,3.023l.857-.168a80.531,80.531,0,0,0-2.269-10.792,31.069,31.069,0,0,0-2.986-7.237" transform="translate(-128.067 -224.69)" fill="#5c7e99"/>
              <path id="Path_575" data-name="Path 575" d="M192.119,237.72a21.179,21.179,0,0,0,.145-2.46,18.257,18.257,0,0,0-4.209-11.757l-.293-.078s-.288.053-.788.149a17.45,17.45,0,0,1,4.419,11.685,20.62,20.62,0,0,1-.14,2.359c-.193,1.656-.286,3.07-.307,4.3l.874-.172c.027-1.15.118-2.476.3-4.024" transform="translate(-134.398 -223.426)" fill="#5c7e99"/>
              <path id="Path_576" data-name="Path 576" d="M209.644,233.162a14.851,14.851,0,0,1,2.551-1.867l-1.153-.306a15.826,15.826,0,0,0-1.985,1.528,20.451,20.451,0,0,0-5.694,10.069c-.13.5-.24.987-.34,1.468l.929-.182a25.629,25.629,0,0,1,1.395-4.448,17.69,17.69,0,0,1,4.3-6.262" transform="translate(-141.147 -226.606)" fill="#5c7e99"/>
              <path id="Path_577" data-name="Path 577" d="M127.865,261.97c-.041,0-.076.005-.116.005q-.136.441-.273.885c.132,0,.251-.018.389-.018,3.762-.006,9.717,1.771,14.681,3.559.411.148.814.3,1.211.443l.373-.792c-.422-.156-.85-.314-1.289-.472-5.01-1.8-10.971-3.6-14.975-3.61" transform="translate(-109.378 -239.635)" fill="#5c7e99"/>
              <path id="Path_578" data-name="Path 578" d="M216.435,246.422a39.05,39.05,0,0,1,12.722-8.933l0-.014-1.286-.341a43.243,43.243,0,0,0-8.6,5.393,28.22,28.22,0,0,0-8.175,10.566q.248.525.508,1.072a25.68,25.68,0,0,1,4.834-7.744" transform="translate(-144.541 -229.191)" fill="#5c7e99"/>
              <path id="Path_579" data-name="Path 579" d="M148.851,255.971a19.833,19.833,0,0,0-4.284-3.116A56.768,56.768,0,0,0,133.6,248.41c-.46-.139-.9-.267-1.325-.388-.093.268-.188.546-.284.826a73.424,73.424,0,0,1,7.051,2.37,29.886,29.886,0,0,1,8.842,5.026l.043-.093Z" transform="translate(-111.275 -233.769)" fill="#5c7e99"/>
            </g>
          </g>
        </g>
        <g id="Group_614" data-name="Group 614" transform="translate(47.964 129.471)" style="mix-blend-mode: multiply;isolation: isolate">
          <g id="Group_613" data-name="Group 613">
            <g id="Group_612" data-name="Group 612" clip-path="url(#clip-path-16)">
              <path id="Path_580" data-name="Path 580" d="M205.382,282.761c-.428,5.4-4.343,4.753-6.5,2.729-2.328-2.18-5.965-12.069-5.965-12.069s-24.121-5.372-25.866-6.828-13.081-26.013-13.081-26.013l-26.746,5.232L115.6,270.517s-.3,7.7-.872,9.3-8,1.884-21.95-.3c-8.189-1.282-10.316-3.855-9.976-6.1,7.953,3.549,23.432.846,24.8-.148,1.6-1.168,10.9-30.958,12.793-33.434s20.2-6.244,20.2-6.244l-3.392-8.834c3.924-.82,6.741-1.343,6.741-1.343l21.6,5.73a82.79,82.79,0,0,1,3.488,14.894c2.485,8.206,4.778,15.462,5.433,16.586,1.6,2.756,23.249,8.136,23.4,8.573.113.331,4.377,8.467,7.517,13.552" transform="translate(-82.771 -223.426)" fill="#5c7e99"/>
            </g>
          </g>
        </g>
        <path id="Path_581" data-name="Path 581" d="M214.4,199.365,184.421,201l-2.939-9.706s-1.718-5.9-3.227-12.7c-1.561-7.011-2.9-14.991-1.893-18.479,1.953-6.871,7.639-12.81,15.365-13.517,6.7-.61,12.009,1.7,14.765,4.762a8.708,8.708,0,0,1,1.587,2.433c1.744,4.142,6.322,45.565,6.322,45.565" transform="translate(-74.018 -61.609)" fill="#5c7e99"/>
        <g id="Group_617" data-name="Group 617" transform="translate(102.206 88.093)" style="mix-blend-mode: multiply;isolation: isolate">
          <g id="Group_616" data-name="Group 616">
            <g id="Group_615" data-name="Group 615" clip-path="url(#clip-path-17)">
              <path id="Path_582" data-name="Path 582" d="M192.277,186.431s-.249-.086-.28-.05a68.306,68.306,0,0,1-15.621-4.679c.034.333.07.668.111,1.011a62.485,62.485,0,0,0,9.427,3.222,41.157,41.157,0,0,1-7.558,4.776c-.166.081-.318.151-.476.225q.09.439.182.877a41.81,41.81,0,0,0,8.917-5.617c1.421.348,2.853.668,4.3.944a56.181,56.181,0,0,1-10.316,7.7c-.683.414-1.33.794-1.957,1.155.07.3.141.6.211.887.694-.4,1.431-.832,2.2-1.3a54.568,54.568,0,0,0,10.893-8.264c3.286.591,6.594,1.018,9.83,1.306-3.731,5.3-9.9,8.689-15.315,10.761a60.069,60.069,0,0,1-6.46,2.049c.076.291.151.573.223.842l.208-.053c1.417.424,16.293,4.8,29.425,4.807,1.191,0,2.362-.046,3.514-.125-.032-.283-.067-.573-.1-.867-1.117.075-2.254.121-3.413.121a98.948,98.948,0,0,1-19.756-2.4c-2.812-.6-5.2-1.2-6.88-1.653-.446-.119-.839-.227-1.18-.323a58.047,58.047,0,0,0,5.939-2.061,43.792,43.792,0,0,0,6.746-3.45,133.651,133.651,0,0,0,17.753,3.094q-.054-.442-.108-.891a136.512,136.512,0,0,1-16.659-2.851,26.022,26.022,0,0,0,7.07-6.916c2.906.236,5.733.366,8.425.429l-.113-.873a125.248,125.248,0,0,1-19.174-1.835" transform="translate(-176.375 -164.502)" fill="#5c7e99"/>
              <path id="Path_583" data-name="Path 583" d="M207.881,166.632q2.126.41,4.086.752-.07-.463-.14-.909c-8.806-1.561-20.414-4.091-29.986-7.751-.18.24-.358.482-.527.73a163.03,163.03,0,0,0,26.567,7.179" transform="translate(-178.452 -154.839)" fill="#5c7e99"/>
              <path id="Path_584" data-name="Path 584" d="M213.38,157.836c-.076-.341-.149-.647-.219-.908-5.287-.7-11.393-1.892-16.719-3.053-3.048-.664-5.832-1.315-8.074-1.855-.3.219-.6.445-.889.683,2.35.57,5.4,1.289,8.777,2.024,5.455,1.189,11.715,2.414,17.123,3.109" transform="translate(-181.045 -152.02)" fill="#5c7e99"/>
              <path id="Path_585" data-name="Path 585" d="M210.666,175.173a139.439,139.439,0,0,1-22.307-4.025c-4.2-1.089-7.782-2.177-10.307-2.993l-.944-.308c-.1.274-.181.552-.267.83,6.045,2,20.077,6.21,33.949,7.381q-.062-.446-.124-.884" transform="translate(-176.571 -158.676)" fill="#5c7e99"/>
              <path id="Path_586" data-name="Path 586" d="M216.768,229.5a96.487,96.487,0,0,1-12.819.92,51.974,51.974,0,0,1-17.28-2.592l.311,1.025a53.683,53.683,0,0,0,16.969,2.44,98.227,98.227,0,0,0,13.626-1.024c.32-.046.619-.091.92-.136q-.047-.413-.1-.867c-.517.078-1.053.156-1.629.235" transform="translate(-180.704 -183.898)" fill="#5c7e99"/>
            </g>
          </g>
        </g>
        <g id="Group_620" data-name="Group 620" transform="translate(104.237 89.757)" style="mix-blend-mode: multiply;isolation: isolate">
          <g id="Group_619" data-name="Group 619">
            <g id="Group_618" data-name="Group 618" clip-path="url(#clip-path-18)">
              <path id="Path_587" data-name="Path 587" d="M216.028,202.891l-29.981,1.639-2.939-9.706s-1.718-5.9-3.227-12.7c3.331,6.724,9.74,13.246,16.089,14.328,8.285,1.421,14.389-24.854,12.209-41.092-.017-.166-.044-.323-.061-.471a8.707,8.707,0,0,1,1.587,2.433c1.744,4.142,6.322,45.565,6.322,45.565" transform="translate(-179.881 -154.893)" fill="#5c7e99"/>
            </g>
          </g>
        </g>
        <path id="Path_588" data-name="Path 588" d="M190.791,149.5a8.594,8.594,0,0,1-3.689,6.732c-6.436,2.232-16.979,5.695-19.944,5.459-1.308-.1-3.523-1.692-5.973-3.863-.271-.227-.541-.471-.8-.715-5.52-5.05-11.869-12.436-11.869-12.436-7.229,5.546-14.764,5.38-14.773,1.325a3.2,3.2,0,0,1,.114-.776c1.125-4.247,10.491-11.633,13.709-12,3.418-.384,20.467,14.868,20.467,14.868l10.439-3.942,1.726-.654h.009a16.907,16.907,0,0,1,6.323-.575c2.067.21,4.308,3.14,4.264,6.575" transform="translate(-56.241 -56.024)" fill="#5c7e99"/>
        <g id="Group_623" data-name="Group 623" transform="translate(80.246 77.341)" style="mix-blend-mode: multiply;isolation: isolate">
          <g id="Group_622" data-name="Group 622">
            <g id="Group_621" data-name="Group 621" clip-path="url(#clip-path-19)">
              <path id="Path_589" data-name="Path 589" d="M179.572,151.235l-.687-.578a46.046,46.046,0,0,1-6.167,9.856q.308.314.617.626a39.439,39.439,0,0,0,4.064-5.81c-.033,1.763-.153,3.708-.3,5.547-.1,1.269-.217,2.493-.329,3.57q.4.373.808.72c.124-1.223.267-2.682.389-4.22.193-2.414.339-5.006.31-7.176.469-.867.9-1.719,1.295-2.535" transform="translate(-152.877 -140.695)" fill="#5c7e99"/>
              <path id="Path_590" data-name="Path 590" d="M175.045,146.106q-.371-.3-.745-.6c-.617,2.511-1.682,5.692-2.708,8.508-.389,1.07-.768,2.077-1.119,2.991q.331.345.668.694c.389-1.009.826-2.163,1.27-3.386.98-2.7,1.992-5.7,2.634-8.207" transform="translate(-151.933 -138.529)" fill="#5c7e99"/>
              <path id="Path_591" data-name="Path 591" d="M160.215,133.925a7.874,7.874,0,0,0-1.106-.459,20.559,20.559,0,0,1,1.262,5.347,46.319,46.319,0,0,1,.164,7.52c.245.276.522.588.821.92a48.821,48.821,0,0,0-.118-8.54,23.132,23.132,0,0,0-1.022-4.789" transform="translate(-147.154 -133.466)" fill="#5c7e99"/>
              <path id="Path_592" data-name="Path 592" d="M139.906,144.216q-.446.435-.862.873c0,.2,0,.411,0,.629-.016,1.307-.08,2.882-.209,4.493-.086,1.087-.2,2.19-.353,3.237a6.792,6.792,0,0,0,.865.11c.152-1.066.269-2.179.358-3.278.156-1.957.219-3.855.215-5.31,0-.269,0-.518-.01-.755" transform="translate(-138.479 -137.987)" fill="#5c7e99"/>
              <path id="Path_593" data-name="Path 593" d="M170.779,143.366q-.365-.286-.728-.566a34.416,34.416,0,0,1-4.941,9.739l.593.647a33.406,33.406,0,0,0,4.817-9.092c.09-.248.176-.49.26-.728" transform="translate(-149.677 -137.391)" fill="#5c7e99"/>
              <path id="Path_594" data-name="Path 594" d="M145.387,139.859q-.361.286-.718.583a25.984,25.984,0,0,1,.86,7.192c.015,1.32-.017,2.595-.063,3.7.29-.074.583-.155.883-.249.041-1.054.067-2.238.053-3.465a25.16,25.16,0,0,0-1.014-7.765" transform="translate(-141.082 -136.154)" fill="#5c7e99"/>
              <path id="Path_595" data-name="Path 595" d="M150.108,136.45q-.361.233-.73.485a25.333,25.333,0,0,1,1.759,2.29,18.315,18.315,0,0,1,3.076,7.436c.261-.184.523-.363.783-.562a19.783,19.783,0,0,0-3.468-7.839c-.49-.686-.972-1.286-1.42-1.81" transform="translate(-143.062 -134.721)" fill="#5c7e99"/>
              <path id="Path_596" data-name="Path 596" d="M187.253,157.581c-.381,1.03-.863,2.245-1.441,3.53a30.5,30.5,0,0,1-4.312,7.175q.334.291.659.565a33.528,33.528,0,0,0,4.953-8.538c.316-.751.6-1.464.843-2.112l-.7-.619" transform="translate(-156.57 -143.607)" fill="#5c7e99"/>
              <path id="Path_597" data-name="Path 597" d="M217.815,162.186c-.7-3.8-2.029-8.164-4.7-11.169l-.881.333c2.634,2.793,4.029,7.156,4.723,10.992.149.814.258,1.59.352,2.334l.848-.287c-.092-.7-.2-1.441-.342-2.2" transform="translate(-169.494 -140.847)" fill="#5c7e99"/>
              <path id="Path_598" data-name="Path 598" d="M207.01,153.34a29.231,29.231,0,0,1,1.195,10.326,20.407,20.407,0,0,1-.812,4.331q.489-.145.982-.3a21.642,21.642,0,0,0,.7-3.965,30.156,30.156,0,0,0-1.247-10.7Z" transform="translate(-167.298 -141.694)" fill="#5c7e99"/>
              <path id="Path_599" data-name="Path 599" d="M199.809,156.061l-.815.308a23.629,23.629,0,0,1,1.4,6.921,54.76,54.76,0,0,1,.01,7q.436-.115.888-.238a55.114,55.114,0,0,0-.028-6.829,24.457,24.457,0,0,0-1.456-7.165" transform="translate(-163.927 -142.968)" fill="#5c7e99"/>
              <path id="Path_600" data-name="Path 600" d="M193.157,157.6c-.016.58-.05,1.293-.115,2.1a37.013,37.013,0,0,1-1.109,6.654,16.721,16.721,0,0,1-2.272,5.166,3.56,3.56,0,0,0,.877.265,17.993,17.993,0,0,0,2.236-5.2,37.863,37.863,0,0,0,1.138-6.814c.079-1,.114-1.853.125-2.5Z" transform="translate(-160.002 -143.474)" fill="#5c7e99"/>
            </g>
          </g>
        </g>
        <g id="Group_626" data-name="Group 626" transform="translate(77.5 84.263)" style="mix-blend-mode: multiply;isolation: isolate">
          <g id="Group_625" data-name="Group 625">
            <g id="Group_624" data-name="Group 624" clip-path="url(#clip-path-20)">
              <path id="Path_601" data-name="Path 601" d="M190.791,154.629a8.594,8.594,0,0,1-3.689,6.732c-6.436,2.232-16.979,5.695-19.944,5.459-1.308-.1-3.523-1.692-5.973-3.863-.271-.227-.541-.471-.8-.715-5.52-5.05-11.869-12.436-11.869-12.436-7.229,5.546-14.764,5.38-14.773,1.325a3.2,3.2,0,0,1,.114-.776c4.6.375,14.459-4.944,14.459-4.944s16.151,12.775,18.531,14.388c.872.584,13.125-7.256,19.133-7.465a5.267,5.267,0,0,1,4.814,2.294" transform="translate(-133.741 -145.411)" fill="#5c7e99"/>
            </g>
          </g>
        </g>
        <path id="Path_602" data-name="Path 602" d="M173.535,255.854s10.465-74.416,17.15-91.567S205.8,144.959,225.2,145.056c1.642.008,2.619-.1,5.289-.019,13.12,3.887,23.289,16.157,20.948,34.367-2.616,20.348-13.953,76.16-13.953,76.16Z" transform="translate(-72.975 -60.979)" fill="#17171f"/>
        <path id="Path_603" data-name="Path 603" d="M268.5,179.366c-.14,1.073-.305,2.25-.488,3.514-3.3,22.587-13.465,72.652-13.465,72.652l-17.354.078-46.594.21s1.116-7.945,2.86-19.238c3.575-23.275,9.785-60.782,14.285-72.328,6.688-17.153,20.057-21.217,35.466-18.6,12.557,2.128,23.179,9.672,25.264,23.4a36.676,36.676,0,0,1,.026,10.316" transform="translate(-80.149 -60.944)" fill="#313345"/>
        <path id="Path_604" data-name="Path 604" d="M268.5,196.872c-2.616,20.354-13.953,76.166-13.953,76.166l-63.948.288s1.116-7.945,2.86-19.238a39.963,39.963,0,0,0,11.807-.924c10.927-2.616,8.852-8.424,9.942-10.622s8.5,7.143,17.424,3.672,5.616-9.723,5.616-9.723,5.808,1.857,8.45-2.442-1.186-11.11,9.506-22.22c5.773-5.991,10.325-15.017,12.27-25.272a36.676,36.676,0,0,1,.026,10.316" transform="translate(-80.149 -78.451)" fill="#212230"/>
        <path id="Path_605" data-name="Path 605" d="M301.821,207.664c-3.3,22.586-13.465,72.651-13.465,72.651L271,280.393l14.249-39.871s-12.1-14.3-12.191-15.1c-.027-.157-.061-.41-.114-.715a19.706,19.706,0,0,1-.358-4.9c.27-1.36,2.738-5.119,2.738-5.119s-.07,5.651-.1,5.947c0,.305,4.893,4.247,5.2,4.5-.279-.305-4.709-5.067-4.631-5.73.087-.68,2.59-7.325,2.59-7.325l6.139-1.221-1.98,1.544a33.877,33.877,0,0,0-1.212,3.916c.061.314,5.668,5.869,5.668,5.869s-3.418-7.081-3.253-8.442c.166-1.377,5.189-8.886,6.331-9.636s11.18.48,11.18.48-6.567,1.282-7.151,1.709c-.567.418-3.227,4.944-3.026,5.869.192.9,3.95,7.246,4.186,7.648-.07-.323-1.3-5.608-1.256-5.9a89.556,89.556,0,0,1,7.814-6.253" transform="translate(-113.962 -85.727)" fill="#17171f"/>
        <path id="Path_606" data-name="Path 606" d="M253.622,270.5c-4.322,4.323.486,11,4.113,6.482s1.555-12.151-4.113-6.482" transform="translate(-105.934 -112.902)" fill="#212230"/>
        <path id="Path_607" data-name="Path 607" d="M207.307,290.714c-4.149,2.083-.235,4.1,3.2,1.81s-.25-3.293-3.2-1.81" transform="translate(-86.425 -121.957)" fill="#212230"/>
      </g>
    </g>
    <text id="RIP" transform="translate(140.474 123.901) rotate(9.282)" fill="#fff" font-size="19" font-family="Poppins-Bold, Poppins" font-weight="700"><tspan x="0" y="0">RIP</tspan></text>
    <g id="Group_633" data-name="Group 633">
      <g id="Group_632" data-name="Group 632" clip-path="url(#clip-path)">
        <path id="Path_608" data-name="Path 608" d="M290.064,211.21a19.736,19.736,0,0,0,.139,4.913c.041.311.065.563.082.717.067.81,11.529,15.621,11.529,15.621l-17.078,41.969,24.73,3.752,7.788-38.839s16.289-9.313,16.83-10.022a13.825,13.825,0,0,0,.455-3.822c.149-3.3.057-7.644-.489-8.567-.883-1.482-5.07-3.384-5.687-3.487s-6.385.925-6.385.925l5.838,1.076.388,7.159s-4.759,0-5.063-.051-4.111-13.273-4.17-13.578,3.283-4.45,3.947-4.634,6.971,1.274,6.971,1.274-8.852-5.784-9.641-5.517a81.186,81.186,0,0,0-8.54,6.156c-.049.295,1.011,5.962,1.011,5.962s-3.7-6.909-3.858-7.838,2.689-5.34,3.28-5.737,7.215-1.393,7.215-1.393-9.972-1.674-11.148-.969-6.515,7.99-6.744,9.358c-.227,1.352,2.889,8.57,2.889,8.57s-5.368-5.79-5.417-6.1a34.992,34.992,0,0,1,1.383-3.859l2.046-1.462-6.188.959s-2.787,6.53-2.9,7.206c-.11.652,4.114,5.6,4.374,5.919-.294-.265-5.046-4.442-5-4.722.05-.3.361-5.932.361-5.932s-2.624,3.65-2.951,4.993" transform="translate(-119.737 -82.466)" fill="#5c7e99"/>
        <g id="Group_631" data-name="Group 631" transform="translate(164.999 133.656)" style="mix-blend-mode: multiply;isolation: isolate">
          <g id="Group_630" data-name="Group 630">
            <g id="Group_629" data-name="Group 629" clip-path="url(#clip-path-22)">
              <path id="Path_609" data-name="Path 609" d="M301.815,246.985l-17.079,41.969,24.73,3.752,7.788-38.838s16.289-9.314,16.83-10.022a13.819,13.819,0,0,0,.455-3.822c-4.928,2.52-14.1,6.221-15.485,6.892-1.84.889-9.324-2.364-13.424-4.786-3.615-2.133-13.184-9.691-15.428-11.481.041.31.066.562.082.716.067.811,11.529,15.621,11.529,15.621" transform="translate(-284.736 -230.648)" fill="#5c7e99"/>
            </g>
          </g>
        </g>
        <path id="Path_610" data-name="Path 610" d="M231.458,325.121l5.817,1.448a93.361,93.361,0,0,1-20.494,3.637c-10.177.436-21.365-1.893-27.033-1.893S163,327.3,163,327.3l2.9-1.6s-10.029,0-16.273.436-14.973-2.32-14.973-2.32,13.081-1.169,16.857-2.616a12.5,12.5,0,0,0,4.552-3.261,33.646,33.646,0,0,1,3.009-3.14c1.893-1.448,3.776-.14,5.956-1.744s7.273-4.212,9.156-4.5,6.4,1.012,7.709.436,8.136-5.232,12.933-5.668,14.537-.148,20.93,2.32,11.624,10.177,15.845,13.665a10.374,10.374,0,0,0,2.206,1.335c5.468,2.564,15.523,3.75,15.523,3.75Z" transform="translate(-56.627 -127.481)" fill="#de8647"/>
        <path id="Path_611" data-name="Path 611" d="M231.458,335.85l5.817,1.448a93.362,93.362,0,0,1-20.494,3.637c-10.177.436-21.365-1.893-27.033-1.893S163,338.03,163,338.03l2.9-1.6s-10.029,0-16.273.436-14.973-2.32-14.973-2.32,13.081-1.169,16.857-2.616a12.5,12.5,0,0,0,4.552-3.261,80.982,80.982,0,0,0,18.209,1.517c9.366-.3,2.424,2.4,4.587,3.741s3.053,1.927,20.921,1.195,22.84.017,29.293-2.241c1.579-.55,3.165-1.073,4.735-1.509,5.468,2.564,15.523,3.75,15.523,3.75Z" transform="translate(-56.627 -138.21)" fill="#c6643a"/>
        <path id="Path_612" data-name="Path 612" d="M242.172,73.229s-5.94-8.1-13.327-8.836c0,0-1.486-11.112-8.7-13.29,0,0-.681-9.451-8.481-13.027,0,0,6.884-2.9,11.31-2.8,0,0,8.409,2.794,13.748,7.492,0,0-2.942,15.315,8.929,23.744L244.62,68.5Z" transform="translate(-89.007 -14.832)" fill="#212230"/>
        <path id="Path_613" data-name="Path 613" d="M244.62,68.5a29.946,29.946,0,0,1-7.651-8.341c-3.367-5.611-2.952-12.181-2.518-15.138-2.118.3-7.471,1.448-14.311,6.082a34.619,34.619,0,0,1,13.795-8.271c-4.753-3.385-9.725-5.91-11.032-6.138-1.386-.24-11.244,1.382-11.244,1.382s6.883-2.9,11.31-2.8c0,0,8.41,2.794,13.748,7.492,0,0-2.941,15.315,8.929,23.744Z" transform="translate(-89.007 -14.832)" fill="#313345"/>
        <path id="Path_614" data-name="Path 614" d="M275.409,96.844s10.043.122,14.94,5.7c0,0,9.9-5.254,15.873-.65,0,0,8.085-4.942,15.53-.678,0,0-1.643-7.287-4.3-10.83,0,0-7.164-5.215-14.091-6.826,0,0-10.747,11.3-24.509,6.546L277.832,92.1Z" transform="translate(-115.815 -35.139)" fill="#212230"/>
        <path id="Path_615" data-name="Path 615" d="M279.591,92.1a29.927,29.927,0,0,0,11.234,1.372c6.523-.524,11.627-4.683,13.778-6.756.991,1.895,3.167,6.92,3.377,15.179a34.622,34.622,0,0,0-1.295-16.032c5.518,1.9,10.464,4.474,11.409,5.4,1,.988,5.416,9.951,5.416,9.951s-1.643-7.287-4.3-10.83c0,0-7.165-5.215-14.092-6.826,0,0-10.746,11.3-24.508,6.546Z" transform="translate(-117.574 -35.139)" fill="#313345"/>
        <path id="Path_616" data-name="Path 616" d="M264.237,66.223s-14.081,32.927-9.845,37.7,25.148-30.05,25.148-30.05l-5.259,2.707s-4.993-3.271-8.759-4.221Z" transform="translate(-106.643 -27.848)" fill="#212230"/>
      </g>
    </g>
  </g>
</svg>
