<svg id="Group_251" data-name="Group 251" xmlns="http://www.w3.org/2000/svg" xmlns:xlink="http://www.w3.org/1999/xlink" width="252.488" height="214.271" viewBox="0 0 252.488 214.271">
  <defs>
    <clipPath id="clip-path">
      <rect id="Rectangle_450" data-name="Rectangle 450" width="252.488" height="214.271" fill="none"/>
    </clipPath>
    <clipPath id="clip-path-3">
      <rect id="Rectangle_442" data-name="Rectangle 442" width="242.257" height="40.518" fill="none"/>
    </clipPath>
    <clipPath id="clip-path-4">
      <rect id="Rectangle_443" data-name="Rectangle 443" width="250.077" height="171.636" fill="none"/>
    </clipPath>
    <clipPath id="clip-path-5">
      <rect id="Rectangle_444" data-name="Rectangle 444" width="233.648" height="140.092" fill="none"/>
    </clipPath>
    <clipPath id="clip-path-6">
      <rect id="Rectangle_445" data-name="Rectangle 445" width="35.616" height="26.523" fill="none"/>
    </clipPath>
    <clipPath id="clip-path-7">
      <rect id="Rectangle_446" data-name="Rectangle 446" width="15.215" height="36.142" fill="none"/>
    </clipPath>
    <clipPath id="clip-path-8">
      <rect id="Rectangle_447" data-name="Rectangle 447" width="7.633" height="32.802" fill="none"/>
    </clipPath>
    <clipPath id="clip-path-9">
      <rect id="Rectangle_448" data-name="Rectangle 448" width="20.814" height="37.591" fill="none"/>
    </clipPath>
  </defs>
  <g id="Group_250" data-name="Group 250" clip-path="url(#clip-path)">
    <g id="Group_249" data-name="Group 249">
      <g id="Group_248" data-name="Group 248" clip-path="url(#clip-path)">
        <g id="Group_229" data-name="Group 229" transform="translate(5.299 173.753)" opacity="0.67">
          <g id="Group_228" data-name="Group 228">
            <g id="Group_227" data-name="Group 227" clip-path="url(#clip-path-3)">
              <path id="Path_241" data-name="Path 241" d="M9.43,329.433c0,11.189,54.231,20.259,121.129,20.259s121.128-9.07,121.128-20.259-54.231-20.259-121.128-20.259S9.43,318.245,9.43,329.433" transform="translate(-9.43 -309.174)" fill="#95c7b3"/>
            </g>
          </g>
        </g>
        <g id="Group_232" data-name="Group 232" transform="translate(2.411 22.257)" opacity="0.35">
          <g id="Group_231" data-name="Group 231">
            <g id="Group_230" data-name="Group 230" clip-path="url(#clip-path-4)">
              <path id="Path_242" data-name="Path 242" d="M128.306,191.1C63,191.1,9.768,199.745,7.279,210.567c-6.171-11.372-2.462-27.459,8.106-34.608,2.692-1.821,5.74-3.121,8.116-5.365,7.333-6.926,5.4-19.068,7.273-29.165a34.875,34.875,0,0,1,19.044-24.937c10.36-4.819,23.05-4.165,31.983-11.431C89.746,98.6,92.537,87.667,97.119,78.34c10.494-21.365,32.412-35.679,55.41-38.274s46.57,5.908,64.4,21.181c9.533,8.165,17.741,18.546,21.213,30.847,5.27,18.672-.93,38.449-3.056,57.778a18.841,18.841,0,0,0,.327,7.889c1.906,5.841,8.378,8.375,12.6,12.718,8.587,8.829,6.762,23.429,4.321,35.706l-2.909,5.056c-.384-11.134-54.46-20.14-121.12-20.14" transform="translate(-4.289 -39.604)" fill="#95c7b3"/>
            </g>
          </g>
        </g>
        <path id="Path_243" data-name="Path 243" d="M401.726,344.3c0,1.965-9.158,3.557-20.456,3.557s-20.455-1.593-20.455-3.557,9.158-3.557,20.455-3.557,20.456,1.593,20.456,3.557" transform="translate(-158.04 -149.249)" fill="#95c7b3"/>
        <g id="Group_235" data-name="Group 235" opacity="0.35">
          <g id="Group_234" data-name="Group 234">
            <g id="Group_233" data-name="Group 233" clip-path="url(#clip-path-5)">
              <path id="Path_244" data-name="Path 244" d="M188.342,20.8l-2.607-7.664L178,10.742,185.937,8l2.521-8,2.607,7.664,7.732,2.4-8.1,2.931Z" transform="translate(-77.967 0)" fill="#95c7b3"/>
              <path id="Path_245" data-name="Path 245" d="M338.571,97.8l-2.607-7.664-7.732-2.4L336.165,85l2.521-8,2.607,7.664,7.732,2.4-8.1,2.931Z" transform="translate(-143.769 -33.724)" fill="#95c7b3"/>
              <path id="Path_246" data-name="Path 246" d="M384.37,114.672l-1.329-3.906-3.941-1.222,4.044-1.4,1.285-4.08,1.329,3.906L389.7,109.2l-4.129,1.494Z" transform="translate(-166.049 -45.583)" fill="#95c7b3"/>
              <path id="Path_247" data-name="Path 247" d="M5.27,241.012l-1.329-3.907L0,235.883l4.044-1.4,1.285-4.08,1.329,3.906,3.941,1.222L6.47,237.031Z" transform="translate(0 -100.921)" fill="#95c7b3"/>
              <path id="Path_248" data-name="Path 248" d="M359.908,131.7l-1.329-3.906-3.941-1.222,4.044-1.4,1.285-4.08L361.3,125l3.941,1.222-4.129,1.494Z" transform="translate(-155.335 -53.042)" fill="#95c7b3"/>
              <path id="Path_249" data-name="Path 249" d="M40.24,53.592l-1.329-3.906-3.941-1.222,4.044-1.4,1.285-4.08,1.329,3.906,3.941,1.222L41.44,49.61Z" transform="translate(-15.317 -18.829)" fill="#95c7b3"/>
              <path id="Path_250" data-name="Path 250" d="M93.407,75.691a1.161,1.161,0,1,1-1.162-1.162,1.162,1.162,0,0,1,1.162,1.162" transform="translate(-39.896 -32.644)" fill="#95c7b3"/>
              <path id="Path_251" data-name="Path 251" d="M413.939,173.725a1.162,1.162,0,1,1-1.162-1.162,1.162,1.162,0,0,1,1.162,1.162" transform="translate(-180.291 -75.584)" fill="#95c7b3"/>
              <path id="Path_252" data-name="Path 252" d="M410.29,201.112a1.161,1.161,0,1,1-1.162-1.162,1.162,1.162,0,0,1,1.162,1.162" transform="translate(-178.693 -87.58)" fill="#95c7b3"/>
              <path id="Path_253" data-name="Path 253" d="M386.552,196.364a1.161,1.161,0,1,1-1.162-1.162,1.162,1.162,0,0,1,1.162,1.162" transform="translate(-168.296 -85.5)" fill="#95c7b3"/>
              <path id="Path_254" data-name="Path 254" d="M59.653,153.531a1.162,1.162,0,1,1-1.162-1.162,1.162,1.162,0,0,1,1.162,1.162" transform="translate(-25.111 -66.739)" fill="#95c7b3"/>
              <path id="Path_255" data-name="Path 255" d="M47.254,138.376a1.161,1.161,0,1,1-1.162-1.161,1.161,1.161,0,0,1,1.162,1.161" transform="translate(-19.68 -60.101)" fill="#95c7b3"/>
              <path id="Path_256" data-name="Path 256" d="M332.523,61.532a1.161,1.161,0,1,1-1.162-1.162,1.162,1.162,0,0,1,1.162,1.162" transform="translate(-144.63 -26.443)" fill="#95c7b3"/>
            </g>
          </g>
        </g>
        <path id="Path_257" data-name="Path 257" d="M404.982,306.8a17.841,17.841,0,0,0-.493-4.16h-.3c-.576-2.489-8.06-4.459-17.213-4.459-9.529,0-17.254,2.134-17.254,4.767a1.367,1.367,0,0,0,.021.234,17.752,17.752,0,0,0,10.189,19.887c-1.513.41-2.44.948-2.44,1.538,0,1.282,4.333,2.323,9.678,2.323s9.678-1.04,9.678-2.323c0-.591-.926-1.128-2.44-1.538a17.808,17.808,0,0,0,10.569-16.27" transform="translate(-161.786 -130.605)" fill="#dc903c"/>
        <g id="Group_238" data-name="Group 238" transform="translate(207.58 169.801)" opacity="0.11">
          <g id="Group_237" data-name="Group 237">
            <g id="Group_236" data-name="Group 236" clip-path="url(#clip-path-6)">
              <path id="Path_258" data-name="Path 258" d="M404.982,308.534a17.841,17.841,0,0,0-.493-4.16h-.3c-.189-.817-1.127-1.578-2.619-2.232a10.14,10.14,0,0,1,1.648,4.837,13.813,13.813,0,0,1-6.235,12.037c-3.884,2.521-8.895,2.678-13.266,1.547-6.405-1.658-12.01-6.163-14.353-12.03h0a17.808,17.808,0,0,0,10.569,16.27c-1.513.41-2.44.948-2.44,1.538,0,1.282,4.333,2.323,9.678,2.323s9.678-1.04,9.678-2.323c0-.591-.926-1.128-2.44-1.538a17.808,17.808,0,0,0,10.569-16.27" transform="translate(-369.366 -302.142)" fill="#2b3448"/>
            </g>
          </g>
        </g>
        <path id="Path_259" data-name="Path 259" d="M403.786,303.654c0,2.132-6.253,3.859-13.967,3.859s-13.967-1.728-13.967-3.859,6.253-3.859,13.967-3.859,13.967,1.728,13.967,3.859" transform="translate(-164.626 -131.313)" fill="#74471b"/>
        <path id="Path_260" data-name="Path 260" d="M387.823,280.175a30.08,30.08,0,0,1-7.494-5.794c-2.05-2.421-3.331-5.7-2.607-8.793.355-1.512,1.171-2.942,1.139-4.495-.066-3.275-3.606-5.188-5.555-7.821-2.345-3.167-2.337-7.435-2.231-11.374,1.438,4.3,6.37,6.125,9.842,9.042,3.845,3.229,6.033,8.087,6.968,13.02s.732,10,.526,15.018Z" transform="translate(-162.519 -105.954)" fill="#5ca28b"/>
        <g id="Group_241" data-name="Group 241" transform="translate(208.522 136.997)" opacity="0.18">
          <g id="Group_240" data-name="Group 240">
            <g id="Group_239" data-name="Group 239" clip-path="url(#clip-path-7)">
              <path id="Path_261" data-name="Path 261" d="M383.8,259.9c-2.619-6.646-9.106-10.381-12.743-16.132-.064,3.634.117,7.436,2.255,10.323,1.949,2.632,5.49,4.545,5.556,7.82.031,1.553-.785,2.983-1.139,4.5-.724,3.088.557,6.372,2.607,8.792a24.858,24.858,0,0,0,5.759,4.711c.421-6.827.187-13.715-2.294-20.01" transform="translate(-371.042 -243.77)" fill="#2b3448"/>
            </g>
          </g>
        </g>
        <path id="Path_262" data-name="Path 262" d="M398.184,279.468a15.526,15.526,0,0,1-2.3-15.626c1.487-3.51,4.316-6.551,4.685-10.345.184-1.887-.273-3.774-.322-5.67a13.335,13.335,0,0,1,2.09-7.494c-.74,7.791,4.8,15,4.779,22.824-.017,6.024-8.935,16.311-8.935,16.311" transform="translate(-172.896 -105.268)" fill="#5ca28b"/>
        <g id="Group_244" data-name="Group 244" transform="translate(226.59 138.671)" opacity="0.18">
          <g id="Group_243" data-name="Group 243">
            <g id="Group_242" data-name="Group 242" clip-path="url(#clip-path-8)">
              <path id="Path_263" data-name="Path 263" d="M406.117,252.878a67.966,67.966,0,0,1-2.146,17.836,21.17,21.17,0,0,0-.518,8.837,16.744,16.744,0,0,0,7.372-13.583c.019-6.606-3.926-12.771-4.712-19.218a58.035,58.035,0,0,0,0,6.128" transform="translate(-403.192 -246.749)" fill="#2b3448"/>
            </g>
          </g>
        </g>
        <path id="Path_264" data-name="Path 264" d="M400.789,277.349c.029-5.017.255-10.554,3.689-14.212,2.885-3.072,7.56-4.213,9.919-7.7,2.054-3.04,1.8-7.021,2.646-10.59a17.084,17.084,0,0,1,5.887-9.3q.486,5.476.974,10.952c.387,4.357.76,8.854-.585,13.016-1.427,4.413-4.692,8.048-8.468,10.742a65.477,65.477,0,0,1-12.331,6.388Z" transform="translate(-175.549 -103.169)" fill="#5ca28b"/>
        <g id="Group_247" data-name="Group 247" transform="translate(227.9 135.478)" opacity="0.18">
          <g id="Group_246" data-name="Group 246">
            <g id="Group_245" data-name="Group 245" clip-path="url(#clip-path-9)">
              <path id="Path_265" data-name="Path 265" d="M425.28,241.068c-1.373,3.657-1.958,7.619-3.183,11.32a38.943,38.943,0,0,1-8.99,14.566c-3.583,3.828-6.4,6.845-7.584,11.705a61.033,61.033,0,0,0,11.4-5.986c3.775-2.695,7.041-6.33,8.467-10.743,1.345-4.162.972-8.659.585-13.015l-.7-7.846" transform="translate(-405.523 -241.068)" fill="#2b3448"/>
            </g>
          </g>
        </g>
        <path id="Path_266" data-name="Path 266" d="M310.317,244.226c-6.643,13.75-8.91,32.4-2.879,35.182,6.343,2.929,20.691-12.231,28.468-24.56,9.412-14.925,16.26-36.9,10.506-40.933-6.06-4.243-26.751,10.969-36.095,30.31" transform="translate(-133.125 -93.384)" fill="#5e7960"/>
        <path id="Path_267" data-name="Path 267" d="M309.725,279.59l-.873-.362a259.157,259.157,0,0,1,18.093-35.875c2.193-3.62,4.489-7.214,6.827-10.69,1.086-1.627,2.226-3.28,3.482-5.051,3.366-4.763,6.941-9.47,10.62-14l.733.6c-3.665,4.507-7.226,9.2-10.583,13.944-1.25,1.764-2.385,3.409-3.469,5.029-2.326,3.465-4.615,7.052-6.8,10.653a258.879,258.879,0,0,0-18.025,35.749" transform="translate(-135.28 -93.566)" fill="#8bac8c"/>
        <path id="Path_268" data-name="Path 268" d="M360.091,238.225l-.089-.94,12.491-1.135.089.94Z" transform="translate(-157.684 -103.436)" fill="#8bac8c"/>
        <path id="Path_269" data-name="Path 269" d="M353.882,246.686l-.119-.94,14.665-1.812.119.939Z" transform="translate(-154.952 -106.845)" fill="#8bac8c"/>
        <path id="Path_270" data-name="Path 270" d="M328.637,290.934c-7.893,6.224-14.607,16.607-11.84,19.993,2.911,3.561,15.77-1.277,23.924-6.334,9.87-6.121,20.256-17.156,18.011-21.2-2.364-4.258-18.992-1.216-30.1,7.54" transform="translate(-138.482 -123.295)" fill="#5e7960"/>
        <path id="Path_271" data-name="Path 271" d="M317.132,312.079l-.628-.71a170.976,170.976,0,0,1,21.065-16.037c2.36-1.52,4.759-2.988,7.126-4.363,1.18-.688,2.355-1.35,3.516-1.986,3.35-1.838,6.826-3.6,10.331-5.229l.4.858c-3.487,1.624-6.944,3.372-10.272,5.2-1.154.636-2.322,1.29-3.5,1.978-2.352,1.365-4.737,2.825-7.088,4.341a169.982,169.982,0,0,0-20.948,15.948" transform="translate(-138.632 -124.287)" fill="#8bac8c"/>
        <path id="Path_272" data-name="Path 272" d="M380.763,296.822l-7.721-2.929.333-.887,7.721,2.929Z" transform="translate(-163.396 -128.339)" fill="#8bac8c"/>
        <path id="Path_273" data-name="Path 273" d="M376,300.581l-9.2-3.154.31-.9,9.2,3.154Z" transform="translate(-160.661 -129.884)" fill="#8bac8c"/>
        <path id="Path_274" data-name="Path 274" d="M91.84,330.8c-.086,3.422,26.627,12.033,52.778,7.05,7.5-1.429,11.62-3.34,19.747-2.7,10.2.8,15.2,4.718,26.4,3.824,3.845-.307,3.9-.82,11.29-2.392,21.316-4.532,34.579-3.179,34.838-5.782.2-1.979-7.3-4.439-8.622-4.874-13.411-4.4-23.461-1.87-39.037-.435-9.166.845-15.717.893-24.866.959-19.34.142-22.766-1.485-36.752-1.177-13.809.3-35.7,2.445-35.773,5.526" transform="translate(-40.227 -141.677)" fill="#5e7960"/>
        <path id="Path_275" data-name="Path 275" d="M115.02,216.423a.472.472,0,0,1-.436-.292L78.068,127.963a.474.474,0,0,1,.256-.618.464.464,0,0,1,.617.255l36.515,88.168a.473.473,0,0,1-.255.618.454.454,0,0,1-.181.037" transform="translate(-34.179 -55.761)" fill="#22130c"/>
        <path id="Path_276" data-name="Path 276" d="M103.659,234.944a.459.459,0,0,1-.351-.159L48.9,173.851a.466.466,0,0,1,.037-.665.46.46,0,0,1,.666.037l54.408,60.935a.473.473,0,0,1-.351.787" transform="translate(-21.365 -75.802)" fill="#22130c"/>
        <path id="Path_277" data-name="Path 277" d="M135.794,195.4a.477.477,0,0,1-.466-.381A431.037,431.037,0,0,1,127.981,83.2a.5.5,0,0,1,.5-.444.477.477,0,0,1,.443.5,429.987,429.987,0,0,0,7.333,111.571.481.481,0,0,1-.374.559.837.837,0,0,1-.092.007" transform="translate(-55.663 -36.249)" fill="#22130c"/>
        <path id="Path_278" data-name="Path 278" d="M136.662,30.5c-5.043-4.233-13.186-3.337-20.651,1.517-6.092-6.5-13.786-9.308-19.693-6.4-8.108,3.992-9.764,17.215-3.7,29.534,3.294,6.689,8.188,11.716,13.271,14.293a14.445,14.445,0,0,0,11.022,1.334c5.55-1.291,11.5-5,16.3-10.715,8.829-10.517,10.375-23.754,3.453-29.564" transform="translate(-38.967 -10.721)" fill="#e89f9f"/>
        <path id="Path_279" data-name="Path 279" d="M128.131,109.218c.586,1.561.787,1.855.617,2.142-.211.357-1.06.805-5.248-.525.258-.534.614-1.238,1.069-2.047,1.1-1.956,1.662-2.933,2.155-2.87.427.055.452.758,1.407,3.3" transform="translate(-54.094 -46.391)" fill="#e89f9f"/>
        <path id="Path_280" data-name="Path 280" d="M66.264,70.339C60.7,68.872,54.6,72.615,50.507,79.234c-7.236-2.863-14.365-2.219-17.95,2.282-4.921,6.176-1.3,17.245,8.083,24.721,5.1,4.06,10.838,6.208,15.816,6.352a10.624,10.624,0,0,0,4.91-.607,10.616,10.616,0,0,0,4.3-2.447c3.906-3.088,7.227-8.242,8.887-14.542,3.059-11.6-.651-22.64-8.288-24.653" transform="translate(-13.297 -30.671)" fill="#c31304"/>
        <path id="Path_281" data-name="Path 281" d="M87.136,145.174c1.045,1.015,1.313,1.173,1.286,1.463-.034.361-.538,1.031-4.344,1.54,0-.518.024-1.207.082-2.016.142-1.956.221-2.938.633-3.071.359-.117.641.43,2.343,2.084" transform="translate(-36.827 -62.668)" fill="#e89f9f"/>
        <path id="Path_282" data-name="Path 282" d="M26.512,134.484c-6.064,1.787-9.67,8.777-9.75,17.326C8.332,153.236,2,157.9,1.188,164.168c-1.11,8.606,8.589,16.95,21.664,18.638,7.1.917,13.72-.33,18.48-3.029a11.67,11.67,0,0,0,4.269-3.364,11.665,11.665,0,0,0,2.649-4.746c1.914-5.125,2.1-11.859.08-18.726C44.6,140.3,34.835,132.032,26.512,134.484" transform="translate(-0.482 -58.716)" fill="#e89f9f"/>
        <path id="Path_283" data-name="Path 283" d="M82.528,208.578c1.56.36,1.9.356,2.041.643.173.359.081,1.276-3.207,3.919-.291-.489-.665-1.148-1.071-1.942-.98-1.92-1.463-2.887-1.152-3.247.271-.314.847.04,3.388.626" transform="translate(-34.623 -91.033)" fill="#e89f9f"/>
        <path id="Path_284" data-name="Path 284" d="M14.052,193.817c6.109,5.4,11.918,5.954,11.725,6.688-.265,1.008-11.628,1.61-16.725-5.258-2.752-3.707-3.085-8.793-2.135-9.214.905-.4,2.468,3.657,7.135,7.784" transform="translate(-2.819 -81.472)" fill="#fff"/>
        <path id="Path_285" data-name="Path 285" d="M45.561,103.391c3.942,7.139,9.228,9.608,8.8,10.236-.588.86-11.493-2.386-13.99-10.567-1.348-4.416.044-9.318,1.081-9.4.988-.074,1.1,4.273,4.109,9.727" transform="translate(-17.439 -41.025)" fill="#e89f9f"/>
        <path id="Path_286" data-name="Path 286" d="M102.811,47.6c.926,8.1,4.874,12.4,4.238,12.816-.871.571-9.718-6.584-8.911-15.1.436-4.6,3.591-8.6,4.579-8.276.941.307-.613,4.369.094,10.559" transform="translate(-42.962 -16.214)" fill="#fff"/>
        <path id="Path_287" data-name="Path 287" d="M288.39,208.268c1.146-2.762,6.218-3.368,7.9-2.959,5.545,1.356,8.887,25.378,2.154,48.7a91.4,91.4,0,0,1-9.492,21.716l-15.238-20.6c4.454-15.234,7.551-23.363,9.639-28.024a58.326,58.326,0,0,0,3.928-11.705,57.622,57.622,0,0,0,1.113-7.134" transform="translate(-119.888 -89.876)" fill="#dc6455"/>
        <path id="Path_288" data-name="Path 288" d="M144.409,252.785a4.294,4.294,0,0,1-3.326,2.837c-2.087.293-4.4-1.4-4.859-4.142a86.335,86.335,0,0,1-3.229-15.359q-.244-2.055-.391-4.207a.72.72,0,0,1-.033-.261,87.853,87.853,0,0,1-.033-11.707c6.294-2.119,9.816-2.544,10.6-1.272.456.75,0,2.022-1.4,3.881.261,2.771.489,5.543.75,8.316.033.326.065.652.065.978.652,6.979,1.239,13.958,1.859,20.936" transform="translate(-57.974 -95.468)" fill="#dc6455"/>
        <path id="Path_289" data-name="Path 289" d="M145.61,240.412c-.946.424-1.924.848-2.87,1.271-3.2,1.435-6.359,2.838-9.556,4.272q-.244-2.054-.391-4.206c3.294-.359,6.588-.685,9.881-1.044l2.935-.293" transform="translate(-58.165 -105.303)" fill="#22130c"/>
        <path id="Path_290" data-name="Path 290" d="M141.747,225.484l-12.219,2.156c-2.681-7.929-.776-15.966,4.489-19.989a14.7,14.7,0,0,1,8.939-2.8c2.844.371,4.363,3.009,3.8,4.8-.494,1.562-2.674,2.77-5.007,2.137Z" transform="translate(-56.205 -89.727)" fill="#7c3d36"/>
        <path id="Path_291" data-name="Path 291" d="M190.955,252.132A4.3,4.3,0,0,0,194,255.267c2.051.487,4.514-.985,5.224-3.67a86.337,86.337,0,0,0,4.648-14.991q.435-2.023.782-4.152a.726.726,0,0,0,.057-.257,87.891,87.891,0,0,0,1.125-11.653c-6.068-2.7-9.535-3.449-10.433-2.256-.524.7-.189,2.013,1.034,3.995-.519,2.736-1,5.474-1.523,8.209a9.666,9.666,0,0,0-.156.968c-1.3,6.887-2.537,13.781-3.805,20.671" transform="translate(-83.64 -95.372)" fill="#dc6455"/>
        <path id="Path_292" data-name="Path 292" d="M192.853,239.426c.9.51,1.837,1.023,2.739,1.534,3.048,1.727,6.066,3.419,9.114,5.146q.435-2.023.782-4.152c-3.246-.665-6.495-1.3-9.74-1.961l-2.895-.566" transform="translate(-84.471 -104.871)" fill="#22130c"/>
        <path id="Path_293" data-name="Path 293" d="M193.341,224.791l11.964,3.288c3.41-7.644,2.263-15.824-2.6-20.32a14.7,14.7,0,0,0-8.639-3.623c-2.866.1-4.625,2.589-4.229,4.42.345,1.6,2.4,3.007,4.785,2.595q-.639,6.82-1.279,13.641" transform="translate(-83.125 -89.413)" fill="#c31304"/>
        <path id="Path_294" data-name="Path 294" d="M174.432,142.618a19.953,19.953,0,0,0-2.5-.432,8.455,8.455,0,0,0-9.139,6.539l-1.923,8.491a12.65,12.65,0,0,0,2.793,8.263,12.12,12.12,0,0,0,4.554,3.386c.074.017.147.03.22.043s.144.039.218.057a12.137,12.137,0,0,0,5.569-1.094,12.65,12.65,0,0,0,6.08-6.253l1.923-8.491a8.454,8.454,0,0,0-5.429-9.838,19.4,19.4,0,0,0-2.363-.671" transform="translate(-70.459 -62.258)" fill="#dc6455"/>
        <path id="Path_295" data-name="Path 295" d="M161.464,161.832c-.387,1.709-1.723,2.863-2.984,2.577s-1.969-1.9-1.583-3.611,1.723-2.863,2.984-2.577,1.97,1.9,1.583,3.611" transform="translate(-68.676 -69.283)" fill="#dc6455"/>
        <path id="Path_296" data-name="Path 296" d="M197.955,170.1c-.387,1.709-1.723,2.863-2.984,2.577s-1.969-1.9-1.583-3.611,1.724-2.863,2.984-2.577,1.97,1.9,1.583,3.611" transform="translate(-84.66 -72.903)" fill="#dc6455"/>
        <path id="Path_297" data-name="Path 297" d="M176.377,219.439a.858.858,0,0,1,.55.172.981.981,0,0,1,.242,1.1H144.711a.785.785,0,0,1,.859-1.1,27.538,27.538,0,0,1,9.971-.86c1.877.2,2.364.468,4.436.568,3.686.178,5.3-.522,8.3-.722a24.845,24.845,0,0,1,8.1.842" transform="translate(-63.358 -95.725)" fill="#fff"/>
        <path id="Path_298" data-name="Path 298" d="M104.34,262.218a6.874,6.874,0,0,0-4.019,11.073,117.364,117.364,0,0,0,32.635,28.4,212.888,212.888,0,0,1,6.856-20.329l.237-.6q-4.061-2.737-8.57-5.425a177.372,177.372,0,0,0-27.139-13.119" transform="translate(-43.27 -114.854)" fill="#c7dade"/>
        <path id="Path_299" data-name="Path 299" d="M209.075,262.059a6.876,6.876,0,0,1,5.1,10.621,103.762,103.762,0,0,1-14.054,17.847c-7.591,7.689-10.245,10.42-15.078,11.128a16.062,16.062,0,0,1-4.586,0,46.635,46.635,0,0,0-4.779-17.034q-.147-.287-.3-.572,3.77-3.126,7.99-6.247a177.459,177.459,0,0,1,25.706-15.743" transform="translate(-76.818 -114.784)" fill="#c7dade"/>
        <path id="Path_300" data-name="Path 300" d="M174.957,260.446a43.688,43.688,0,0,0-2.875-4.3,41.56,41.56,0,0,0-2.864-3.356l3.589-18.678c2.3-1.159,3.187-9.507,2.063-10.73l.948-4.93a13.033,13.033,0,0,0-4.113-3.252c-5.967-2.973-12.2-.1-13.2.383-1.1-.481-7.329-3.356-13.3-.383a13.04,13.04,0,0,0-4.113,3.252l.948,4.93c-1.125,1.223-.238,9.57,2.062,10.73q1.795,9.339,3.59,18.678a52.959,52.959,0,0,0-9.339,14.579,8.077,8.077,0,0,0,2.66,9.7,29.786,29.786,0,0,0,8.974,4.411,31.777,31.777,0,0,0,25.512-3.812,8.23,8.23,0,0,0,3-10.6c-1.057-2.146-2.3-4.537-3.547-6.632" transform="translate(-60.317 -93.68)" fill="#dc6455"/>
        <path id="Path_301" data-name="Path 301" d="M179.483,298.719c.2,4-2.864,7.388-4.239,8.3a31.212,31.212,0,0,1-15.126,5.214c-2.912.2-11.682.788-18.751-5.1a21.682,21.682,0,0,1-4.353-4.942,13.534,13.534,0,0,1-.13-2.8,15.283,15.283,0,0,1,2.038-6.522,130.647,130.647,0,0,1,7.541-12.228,79.232,79.232,0,0,1,22.557.192c.545.722,1.847,2.451,3.532,4.7,4.217,5.631,6.37,8.572,6.868,12.525.03.239.052.415.065.662" transform="translate(-59.946 -122.611)" fill="#c7dade"/>
        <path id="Path_302" data-name="Path 302" d="M176.995,285.862a78.536,78.536,0,0,0-12.657-1.035,77.177,77.177,0,0,0-10.753.765.481.481,0,0,1-.536-.4.475.475,0,0,1,.4-.536,77.717,77.717,0,0,1,23.621.27.473.473,0,0,1-.078.939" transform="translate(-67.034 -124.342)" fill="#7ea4aa"/>
        <path id="Path_303" data-name="Path 303" d="M172.418,284.4a.474.474,0,0,1-.469-.407l-.537-3.875a.474.474,0,0,1,.939-.133l.536,3.875a.477.477,0,0,1-.4.536.382.382,0,0,1-.067,0" transform="translate(-75.078 -122.458)" fill="#7ea4aa"/>
        <path id="Path_304" data-name="Path 304" d="M175.088,284.864a.484.484,0,0,1-.469-.525l.384-3.453a.473.473,0,0,1,.94.1l-.385,3.454a.469.469,0,0,1-.469.421" transform="translate(-76.483 -122.845)" fill="#7ea4aa"/>
        <path id="Path_305" data-name="Path 305" d="M174.2,316.05a.475.475,0,0,1-.473-.451c-.108-2.356-.185-4.781-.233-7.215-.115-5.931-.044-11.977.215-17.967.011-.259.27-.41.5-.451a.475.475,0,0,1,.451.5c-.259,5.968-.329,11.992-.215,17.9.048,2.429.126,4.848.233,7.192a.475.475,0,0,1-.451.5Z" transform="translate(-75.968 -127.008)" fill="#7ea4aa"/>
        <path id="Path_306" data-name="Path 306" d="M155.219,295.886a12.449,12.449,0,0,1-6.741-2.148.475.475,0,1,1,.525-.791,10.959,10.959,0,0,0,7.55,1.9,9.681,9.681,0,0,0,2.655-.776.472.472,0,1,1,.392.858,10.489,10.489,0,0,1-4.382.962" transform="translate(-64.942 -128.28)" fill="#7ea4aa"/>
        <path id="Path_307" data-name="Path 307" d="M150.951,311.9c-3.379,0-7.133-3.213-8.039-7.077a9.731,9.731,0,0,1,2.071-8.157.472.472,0,0,1,.724.606,8.93,8.93,0,0,0-1.871,7.336c.954,4.079,4.929,6.7,7.75,6.3a6.109,6.109,0,0,0,3.864-2.836,13.469,13.469,0,0,0,1.461-10.583.47.47,0,0,1,.347-.57.462.462,0,0,1,.569.348,14.387,14.387,0,0,1-1.594,11.334,7.008,7.008,0,0,1-4.5,3.239,5.013,5.013,0,0,1-.784.063" transform="translate(-62.497 -129.868)" fill="#7ea4aa"/>
        <path id="Path_308" data-name="Path 308" d="M154.589,299.782a9.816,9.816,0,0,1-1.172-.066,10.577,10.577,0,0,1-4.1-1.365.476.476,0,0,1,.481-.821,9.609,9.609,0,0,0,3.727,1.246,9.935,9.935,0,0,0,4.718-.658.471.471,0,1,1,.355.873,10.618,10.618,0,0,1-4.008.791" transform="translate(-65.3 -130.294)" fill="#7ea4aa"/>
        <path id="Path_309" data-name="Path 309" d="M184.6,295.886a10.512,10.512,0,0,1-4.385-.962.471.471,0,1,1,.392-.858,9.784,9.784,0,0,0,2.658.776,10.991,10.991,0,0,0,7.551-1.9.475.475,0,0,1,.525.791,12.45,12.45,0,0,1-6.741,2.148" transform="translate(-78.814 -128.28)" fill="#7ea4aa"/>
        <path id="Path_310" data-name="Path 310" d="M185.736,311.9a4.98,4.98,0,0,1-.784-.063,7,7,0,0,1-4.5-3.243,14.382,14.382,0,0,1-1.59-11.33.472.472,0,1,1,.917.222,13.459,13.459,0,0,0,1.461,10.583A6.1,6.1,0,0,0,185.1,310.9c2.748.429,6.8-2.218,7.754-6.3a8.851,8.851,0,0,0-1.871-7.336.472.472,0,0,1,.724-.606,9.82,9.82,0,0,1,2.071,8.157c-.91,3.864-4.663,7.077-8.043,7.077" transform="translate(-78.132 -129.867)" fill="#7ea4aa"/>
        <path id="Path_311" data-name="Path 311" d="M186.629,299.782a10.6,10.6,0,0,1-4-.791.471.471,0,0,1-.255-.618.463.463,0,0,1,.618-.255,9.727,9.727,0,0,0,4.715.658,9.609,9.609,0,0,0,3.727-1.246.476.476,0,1,1,.48.821,10.577,10.577,0,0,1-4.1,1.365,9.945,9.945,0,0,1-1.18.066" transform="translate(-79.863 -130.294)" fill="#7ea4aa"/>
        <path id="Path_312" data-name="Path 312" d="M172.1,246.046a78.811,78.811,0,0,0-22.906-.654,79.56,79.56,0,0,1-6.013-34.038l10.78-11.9,14.719.239q5.084,5.68,10.17,11.36a62.773,62.773,0,0,1-6.75,35" transform="translate(-62.682 -87.361)" fill="#7c3d36"/>
        <path id="Path_313" data-name="Path 313" d="M167.147,141.128c-5.087.759-7.938,5.517-8.662,6.726-1.884,3.145-1.38,4.8-2.446,11.006-2,11.662-5.27,14.439-3.125,17.97s6.182,2.047,7.977,5.547c2.07,4.038-2.6,7.377-2.406,14.291.186,6.569,4.7,13.932,9.1,14,4.289.061,7.852-6.8,9.1-11.006,1.282-4.309.949-8.559.543-13.724-.342-4.368-.987-6.706-.2-10.667a29.015,29.015,0,0,1,2.242-6.318c.632-1.569,5.288-13.123.306-21.095-2.3-3.674-7.212-7.5-12.433-6.726" transform="translate(-66.67 -61.771)" fill="#22130c"/>
        <path id="Path_314" data-name="Path 314" d="M136.924,300.678a.5.5,0,0,1-.2-.045.476.476,0,0,1-.225-.632l6.641-14.007a.489.489,0,0,1,.633-.225.476.476,0,0,1,.225.632l-6.641,14.007a.475.475,0,0,1-.429.27" transform="translate(-59.766 -125.151)" fill="#7ea4aa"/>
        <path id="Path_315" data-name="Path 315" d="M207.641,300.608a.468.468,0,0,1-.384-.2l-7.643-10.6a.478.478,0,0,1,.107-.663.471.471,0,0,1,.662.108l7.644,10.6a.477.477,0,0,1-.107.661.483.483,0,0,1-.278.089" transform="translate(-87.393 -126.608)" fill="#7ea4aa"/>
        <path id="Path_316" data-name="Path 316" d="M140.893,280a.469.469,0,0,1-.248-.07l-6.66-4.075a.473.473,0,0,1,.5-.806l6.66,4.074a.474.474,0,0,1-.248.877" transform="translate(-58.588 -120.442)" fill="#7ea4aa"/>
        <path id="Path_317" data-name="Path 317" d="M198.577,283.243a.473.473,0,0,1-.222-.891l6.1-3.214a.473.473,0,0,1,.444.836l-6.1,3.214a.486.486,0,0,1-.222.055" transform="translate(-86.771 -122.241)" fill="#7ea4aa"/>
        <path id="Path_318" data-name="Path 318" d="M160.582,220.589c-3.4,0-6.5-3.48-7.591-6.978-1.113-3.553.229-6.456,1.409-9.019,1.109-2.4,2.066-4.478,1.117-6.774-.858-2.067-2.907-2.818-4.892-3.546-2.078-.762-4.227-1.549-4.874-3.854-.514-1.826.244-3.2,1.9-6.2.669-1.217,1.509-2.733,2.481-4.674,1.5-3,2.87-6.1,4.056-9.2l.887.341c-1.2,3.129-2.581,6.253-4.1,9.281-.98,1.96-1.819,3.483-2.5,4.707-1.579,2.858-2.229,4.041-1.823,5.491.518,1.842,2.266,2.481,4.293,3.224,2.071.762,4.423,1.624,5.436,4.071,1.109,2.681.022,5.037-1.127,7.532-1.165,2.526-2.37,5.136-1.368,8.342.995,3.188,3.931,6.537,6.959,6.3,2.027-.133,3.546-1.808,4.271-2.8l.762.563c-.821,1.12-2.563,3.021-4.97,3.18-.111.007-.222.011-.333.011" transform="translate(-63.77 -74.61)" fill="#22130c"/>
        <path id="Path_319" data-name="Path 319" d="M251.22,246.25c2.224,12.476-4.354,23.073-11.626,24.766-8.231,1.917-20.444-6.852-21.371-21.913q-.393-8.441-.788-16.882-1.478-2.3-2.882-4.859a86.936,86.936,0,0,1-9.861-31.189,58.551,58.551,0,0,1,48.7-3.712,103.177,103.177,0,0,1-2.558,27.353c-.706,3.042-1.52,5.9-2.394,8.565l2.777,17.871" transform="translate(-89.657 -82.708)" fill="#dc6455"/>
        <path id="Path_320" data-name="Path 320" d="M246.651,184.609l-15.912,3.077L228.881,168.1l12.591-2.435q2.589,9.473,5.178,18.947" transform="translate(-100.252 -72.561)" fill="#dc6455"/>
        <path id="Path_321" data-name="Path 321" d="M229.335,157.4a9.554,9.554,0,0,1-12.395-5.376l-5.129-12.989a17.168,17.168,0,0,1,17.771-7.019q2.564,6.5,5.129,12.989a9.553,9.553,0,0,1-5.376,12.394" transform="translate(-92.775 -57.656)" fill="#dc6455"/>
        <path id="Path_322" data-name="Path 322" d="M226.837,158.038a2.664,2.664,0,1,1-3.367-2.324,2.916,2.916,0,0,1,3.367,2.324" transform="translate(-97.085 -68.168)" fill="#dc6455"/>
        <path id="Path_323" data-name="Path 323" d="M262.844,302.38a63.209,63.209,0,0,1-15.694,4.28,63.867,63.867,0,0,1-25.263-1.631,23.81,23.81,0,0,1-5.717-7.744c-6.508-14.273,4.4-29.87,5.391-31.243l32.62,6.533c2.73,2.976,9.2,10.892,9.478,22.06a30.393,30.393,0,0,1-.815,7.745" transform="translate(-93.782 -116.529)" fill="#dc6455"/>
        <path id="Path_324" data-name="Path 324" d="M202.41,246.634l-9.8-.409c-.112-7.423.047-13.576.225-17.973.805-19.823,2.871-25.081,6.551-26.821a6.824,6.824,0,0,1,2.115-.6l5.445,21.065q-2.266,12.37-4.531,24.738" transform="translate(-84.347 -87.966)" fill="#dc6455"/>
        <path id="Path_325" data-name="Path 325" d="M141.178,259.647l-.934,6.8c4.244,1.475,7.635,2.911,9.976,3.964,9.755,4.391,12.59,6.321,18.31,6.519,1.795.062,8.006.276,10.393-3.393a5.53,5.53,0,0,0,.568-1.145l-3.323-6.291a48.1,48.1,0,0,0-7.581-2.128c-9.42-1.817-14.443.193-22.917-2.533a34.848,34.848,0,0,1-4.492-1.8" transform="translate(-61.428 -113.728)" fill="#dc6455"/>
        <path id="Path_326" data-name="Path 326" d="M205.338,236.694l-17.63-2.242a39.975,39.975,0,0,1,1.936-21.4,38.182,38.182,0,0,1,4.671-8.564l7.762,9.405q1.63,11.4,3.261,22.8" transform="translate(-81.931 -89.567)" fill="#eec192"/>
        <path id="Path_327" data-name="Path 327" d="M262.89,275.474a49.724,49.724,0,0,1-12.5,5.027c-15.882,3.978-29.475-1.1-35.109-3.622a41.892,41.892,0,0,1-1.578-24.912l40.943.382q.385-12.692.772-25.384c.183-13.278,4.387-22.794,10.311-24.064a7.716,7.716,0,0,1,4.771.625c8.407,3.887,7.926,21.093,7.949,27.108.034,8.528-1.59,25.161-15.558,44.84" transform="translate(-93.08 -88.807)" fill="#7ea4aa"/>
        <path id="Path_328" data-name="Path 328" d="M249.314,249.043a29.95,29.95,0,0,1-43.549,8.968q-2.9-30.574-5.792-61.148a49.537,49.537,0,0,1,15.711-7.334,64.14,64.14,0,0,1,16.713-2.446,44.525,44.525,0,0,1,17.63,3.771A9.961,9.961,0,0,1,254,193.605a10.239,10.239,0,0,1,2.091,6.73c-1.127,1.18-4.471,14.249-4.265,15.418.825,4.691.795,13.877-2.513,33.29" transform="translate(-87.59 -81.943)" fill="#eec192"/>
        <path id="Path_329" data-name="Path 329" d="M252.338,334.654a10.074,10.074,0,0,1-6.882-3.354,9.794,9.794,0,0,1-2.285-5.14.474.474,0,0,1,.407-.532.445.445,0,0,1,.532.407,8.806,8.806,0,0,0,2.063,4.644,9.094,9.094,0,0,0,6.2,3.029.474.474,0,0,1-.033.946" transform="translate(-106.509 -142.625)" fill="#c7dade"/>
        <path id="Path_330" data-name="Path 330" d="M232.138,140.949c2.206,8.743,1.051,10.717.516,11.458a6.851,6.851,0,0,1-3.1,2.3,8.844,8.844,0,0,1-5.057-.61c-4.514-2.1-5.6-8.12-8.255-7.847-.8.082-.771.607-1.631.714-2.956.366-5.9-6.944-6.216-7.745-1.082-2.75-1.846-4.693-.917-6.115.8-1.225,2.076-.864,6.318-1.834,4.963-1.135,5.574-2.169,8.56-2.038a9.8,9.8,0,0,1,4.892,1.223c.732.444,2.7,1.826,4.892,10.5" transform="translate(-90.694 -56.599)" fill="#7c3d36"/>
        <path id="Path_331" data-name="Path 331" d="M140.343,265.782l-6.507-.846a6.4,6.4,0,0,1-2.532-2.685,7.408,7.408,0,0,1,1.279-7.725q1.082.552,2.174,1.126,3.142,1.651,6.1,3.338-.258,3.4-.515,6.792" transform="translate(-57.253 -111.485)" fill="#dc6455"/>
        <path id="Path_332" data-name="Path 332" d="M144.369,274.577c-.081-.007-6.841-1.206-6.841-1.206a.473.473,0,0,1-.384-.547.481.481,0,0,1,.547-.384l6.759,1.2a.473.473,0,0,1-.081.939" transform="translate(-60.067 -119.328)" fill="#22130c"/>
        <path id="Path_333" data-name="Path 333" d="M141.862,258.489a.484.484,0,0,1-.255-.074l-6.734-4.308a.473.473,0,0,1-.144-.655.481.481,0,0,1,.654-.144l6.733,4.308a.473.473,0,0,1-.255.873" transform="translate(-58.98 -110.92)" fill="#22130c"/>
        <path id="Path_334" data-name="Path 334" d="M62.364,141.014a.472.472,0,0,1-.384-.2,15.264,15.264,0,0,0-8.512-6,14.134,14.134,0,0,0-5.129-.329.453.453,0,0,1-.524-.414.471.471,0,0,1,.414-.525,15.064,15.064,0,0,1,5.469.351,16.18,16.18,0,0,1,9.052,6.371.474.474,0,0,1-.385.747" transform="translate(-20.942 -58.448)" fill="#22130c"/>
        <path id="Path_335" data-name="Path 335" d="M102.383,86.52a.485.485,0,0,1-.47-.536A14.379,14.379,0,0,0,91.8,70.275a.471.471,0,0,1,.274-.9A15.321,15.321,0,0,1,102.852,86.11a.477.477,0,0,1-.469.41" transform="translate(-40.064 -30.377)" fill="#22130c"/>
      </g>
    </g>
  </g>
</svg>
